<svg xmlns="http://www.w3.org/2000/svg" width="112" height="111" fill="none" xmlns:v="https://vecta.io/nano"><path d="M104.021 13.58H67.119a9.83 9.83 0 0 0-4.154-12.266 9.83 9.83 0 0 0-13.408 3.593l-5.008 8.674H9.917c-5.459 0-9.901 4.442-9.901 9.901v61.702c0 5.459 4.442 9.901 9.901 9.901h30.681c.374 3.344.142 7.344-.646 11.25H27.644c-1.207 0-2.185.979-2.185 2.185s.978 2.185 2.185 2.185h56.603c1.206 0 2.185-.978 2.185-2.185s-.978-2.185-2.185-2.185H71.818c-.858-3.943-1.134-7.945-.769-11.25h30.924c5.459 0 9.901-4.442 9.901-9.901V21.434c0-4.331-3.523-7.854-7.853-7.854zM30.909 49.144l6.662 3.846-6.662 3.846v-7.692zm10.232.862l-9.432-5.446L49.61 13.555 59.042 19 41.141 50.006zm19.64-44.908c2.6 1.501 3.494 4.838 1.993 7.439l-1.547 2.68-9.432-5.446 1.547-2.68c1.501-2.601 4.838-3.494 7.439-1.994zM9.917 17.949h32.11L26.832 44.267c-.192.332-.293.709-.293 1.092V60.62c0 1.206.978 2.185 2.185 2.185h54.441c1.206 0 2.185-.978 2.185-2.185s-.978-2.185-2.185-2.185H36.878l6.155-3.554c.332-.192.608-.468.8-.8l20.862-36.133h39.327a3.49 3.49 0 0 1 3.484 3.485v53.931H4.385V23.481a5.54 5.54 0 0 1 5.532-5.532zm57.441 88.385H44.4c.705-3.882.917-7.83.593-11.25h21.663c-.314 3.392-.063 7.34.702 11.25zm34.616-15.619H9.917a5.54 5.54 0 0 1-5.532-5.532v-5.448h103.12v5.448a5.54 5.54 0 0 1-5.532 5.532zM85.35 47.401c0 1.206-.978 2.185-2.185 2.185H60.532c-1.206 0-2.185-.978-2.185-2.185s.978-2.185 2.185-2.185h11.316 11.317c1.206 0 2.185.978 2.185 2.185z" fill="#038eb0"/><rect x="56.971" y="44.307" width="29.189" height="5.838" rx="2.919" fill="#515151"/></svg>