<svg xmlns="http://www.w3.org/2000/svg" width="136" height="136" fill="none" xmlns:v="https://vecta.io/nano"><path d="M110.866 28.567c2.26 0 4.088-1.802 4.088-4.028s-1.828-4.028-4.088-4.028-4.089 1.802-4.089 4.028 1.846 4.028 4.089 4.028zm0-5.184c.655 0 1.19.527 1.19 1.173s-.535 1.173-1.19 1.173a1.16 1.16 0 0 1-1.19-1.173c0-.663.534-1.173 1.19-1.173z" fill="#515151"/><path d="M115.403 14H31.355c-3.192 0-5.797 2.567-5.797 5.711v8.72h-5.762c-3.192 0-5.797 2.567-5.797 5.711v71.611c0 3.145 2.605 5.712 5.797 5.712h38.522v8.26c0 .782.656 1.428 1.449 1.428H86.99c.794 0 1.449-.646 1.449-1.428v-8.26h15.405c3.191 0 5.796-2.567 5.796-5.712v-8.719h5.762c3.192 0 5.797-2.567 5.797-5.711V19.711c0-3.145-2.605-5.711-5.797-5.711zm-86.946 5.711c0-1.581 1.311-2.856 2.898-2.856h84.048c1.605 0 2.899 1.292 2.899 2.856v12.527H63.304l-6.469-6.612a2.67 2.67 0 0 0-1.898-.799h-14.25c-1.449 0-2.639 1.173-2.639 2.601v4.81h-9.592V19.711zm-8.66 88.915c-1.604 0-2.898-1.292-2.898-2.856V34.142c0-1.581 1.311-2.856 2.898-2.856h5.762v60.053c0 3.145 2.605 5.711 5.797 5.711h31.466a6.51 6.51 0 0 1 .725 3.57h-2.243c-1.656 0-2.984 1.326-2.984 2.941v5.065H19.797zm52.151-29.899c.293-.51.828-.833 1.432-.833.897 0 1.622.714 1.622 1.598a1.61 1.61 0 0 1-.811 1.394c-.552.323-1.208.289-1.88-.085-.086-.051-.172-.119-.207-.204-.552-.867-.328-1.547-.155-1.87zm-.017-3.417c-1.052.357-1.949 1.054-2.501 2.04-.828 1.462-.725 3.247.242 4.776a3.6 3.6 0 0 0 1.225 1.156c.794.442 1.656.68 2.501.68.793 0 1.57-.204 2.26-.595 1.38-.799 2.243-2.278 2.243-3.859 0-1.955-1.294-3.603-3.071-4.198v-7.343l12.818 22.794c-.017.017-.034.051-.086.068-4.537 1.156-7.504 5.337-7.263 9.791H66.479c.259-4.47-2.726-8.652-7.349-9.927L71.93 67.968v7.343zm13.611 42.988H61.217l.086-14.839h24.152c.052 0 .086.034.086.085v14.754zm21.202-12.545c0 1.581-1.311 2.856-2.898 2.856H88.44v-5.065c0-1.632-1.346-2.941-2.984-2.941h-2.243c-.103-1.258.172-2.482.725-3.569h22.806v8.719zm8.66-11.558H86.749c.466-.255.966-.476 1.518-.612a3.06 3.06 0 0 0 2.036-1.717c.362-.833.311-1.768-.138-2.567L75.329 62.97a2.2 2.2 0 0 0-1.932-1.139c-.828.017-1.57.425-1.967 1.122L56.576 89.3a2.9 2.9 0 0 0-.121 2.584c.362.85 1.104 1.462 2.018 1.7.552.136 1.035.357 1.518.612H31.355c-1.604 0-2.898-1.292-2.898-2.856V35.094h9.833c1.449 0 2.639-1.173 2.639-2.601v-4.81h13.887l6.469 6.612a2.67 2.67 0 0 0 1.898.799h55.118v56.228c0 1.581-1.294 2.873-2.899 2.873z" fill="#bc1d8d"/><path d="M100.997 28.567c2.26 0 4.088-1.802 4.088-4.028s-1.828-4.028-4.088-4.028-4.089 1.802-4.089 4.028 1.829 4.028 4.089 4.028zm0-5.184c.655 0 1.19.527 1.19 1.173s-.535 1.173-1.19 1.173c-.673 0-1.191-.51-1.191-1.173s.535-1.173 1.191-1.173zm-9.883 5.184c2.26 0 4.088-1.802 4.088-4.028s-1.829-4.028-4.088-4.028-4.089 1.802-4.089 4.028 1.829 4.028 4.089 4.028zm0-5.184c.655 0 1.19.527 1.19 1.173s-.535 1.173-1.19 1.173a1.16 1.16 0 0 1-1.19-1.173c0-.663.535-1.173 1.19-1.173z" fill="#515151"/><path d="M101.308 47.537c-.845.833-1.38 1.887-1.587 3.009h-20.27v-2.244c0-1.53-1.259-2.771-2.812-2.771H70.1c-1.553 0-2.812 1.241-2.812 2.771v2.244H47.035c-.19-1.105-.725-2.159-1.587-3.026-2.191-2.125-5.934-2.091-8.074.017-1.087 1.071-1.673 2.482-1.673 3.977 0 1.513.604 2.941 1.673 3.977 1.087 1.105 2.536 1.666 4.037 1.666.949 0 1.915-.221 2.829-.68a5.05 5.05 0 0 0 2.277-2.312 7.14 7.14 0 0 0 .31-.765h14.06c-7.642 3.672-13.404 10.572-15.405 18.901H43.24c-1.553 0-2.812 1.241-2.812 2.771v6.442c0 1.53 1.259 2.771 2.812 2.771h6.538c1.553 0 2.812-1.241 2.812-2.771v-6.442c0-1.53-1.259-2.771-2.812-2.771h-1.311c2.415-8.975 9.712-16.012 18.873-18.187v.612c0 1.53 1.259 2.771 2.812 2.771h6.538c1.553 0 2.812-1.241 2.812-2.771v-.612c9.143 2.176 16.441 9.213 18.873 18.187h-1.19c-1.553 0-2.812 1.241-2.812 2.771v6.442c0 1.53 1.259 2.771 2.812 2.771h6.538c1.553 0 2.812-1.241 2.812-2.771v-6.442c0-1.53-1.259-2.771-2.812-2.771h-2.363c-2.019-8.329-7.781-15.247-15.406-18.901h14.095c.276.782.724 1.496 1.328 2.091 1.087 1.105 2.536 1.666 4.037 1.666.949 0 1.915-.221 2.829-.68a5.05 5.05 0 0 0 2.277-2.312c1.122-2.329.725-4.861-1.052-6.646-2.26-2.108-6.004-2.091-8.16.017zm-57.43 5.422c-.207.408-.552.765-.966.969-1.501.748-2.795.272-3.502-.459-.535-.51-.828-1.207-.828-1.955 0-.731.293-1.428.828-1.972.535-.527 1.242-.816 2.001-.816.742 0 1.466.289 1.984.799.897.918 1.07 2.193.483 3.434zm5.865 28.471l-6.452.085-.086-6.357h6.452l.086 6.272zm53.927 0l-6.452.085-.086-6.357h6.452l.086 6.272zM70.204 54.744l-.035-2.142c.035-.153.035-.306.017-.476v-.017c0-.051.035-.085.035-.136 0-.085-.035-.153-.052-.221l-.052-3.349h6.452l.052 3.349c-.017.085-.052.153-.052.238 0 .051.017.085.035.136v.017a1.44 1.44 0 0 0 .034.612l.035 1.921-6.469.068zm37.625-1.785c-.207.408-.552.765-.966.969-1.501.748-2.795.272-3.502-.459-.535-.51-.828-1.207-.828-1.955a2.8 2.8 0 0 1 .828-1.972c.535-.527 1.242-.816 2.001-.816.742 0 1.466.289 1.984.799.897.918 1.07 2.193.483 3.434z" fill="#bc1d8d"/></svg>