<svg width="170" height="65" viewBox="0 0 170 65" fill="none" xmlns="http://www.w3.org/2000/svg">
<g clip-path="url(#clip0_108_480)">
<path d="M80.3535 22.976L83.2996 16.3634L85.7425 19.4907L80.3535 22.976Z" fill="#1B5A96"/>
<path d="M84.0264 15.5171L93.2212 28.1635L97.5823 22.5595L101.194 17.7504L102.391 6.06268L84.0264 15.5171Z" fill="#1B5A96"/>
<path d="M102.874 1.35497L102.641 3.62574L112.525 0.84559L102.392 6.06266L101.195 17.7504L114.526 0L102.874 1.35497Z" fill="#FB9100"/>
<path d="M88.3755 3.04154L70.792 5.08609L75.7353 9.25476L77.4595 10.7088L102.641 3.62581L102.873 1.35504L88.3755 3.04154Z" fill="#1B5A96"/>
<path d="M78.5684 12.1331L80.1901 21.841L82.5675 14.244L102.486 5.14763L102.571 4.3114L78.5684 12.1331Z" fill="#1B5A96"/>
<path d="M102.571 4.31141L102.485 5.14764L108.665 2.32458L102.571 4.31141Z" fill="#FB9100"/>
<path d="M24.5011 60.7218C24.5011 61.8217 24.1353 62.7112 23.4039 63.3904C22.6724 64.0696 21.7498 64.4094 20.636 64.4099C19.753 64.4178 18.891 64.1442 18.1774 63.6299C17.4454 63.1098 17.051 62.4156 16.9942 61.5471L16.8625 58.5095H9.52687C8.82486 59.6671 8.21776 60.6219 7.70558 61.3739C7.28469 62.0087 6.81476 62.6104 6.29998 63.1735C5.87561 63.6223 5.45861 63.9406 5.04897 64.1283C4.63604 64.3165 4.18636 64.4126 3.73171 64.4099C2.64898 64.4099 1.75635 64.0701 1.05381 63.3904C0.35127 62.7107 0 61.8211 0 60.7218C0 60.404 0.0951795 60.028 0.285538 59.5938C0.414427 59.2784 0.568735 58.9737 0.746974 58.6827L17.1228 33.9929C17.6074 33.2526 18.2617 32.6358 19.0324 32.1925C19.797 31.747 20.6692 31.5146 21.5565 31.5201C22.4053 31.5201 23.1078 31.8165 23.6642 32.4093C24.2205 33.0022 24.4995 33.7614 24.5011 34.6871V60.7218ZM13.2215 51.3945H16.7458V46.1073L13.2215 51.3945Z" fill="#FB9100"/>
<path d="M68.1052 51.3945H71.6286V46.1073L68.1052 51.3945ZM79.4178 60.7233C79.4178 61.8232 79.0518 62.7128 78.3198 63.3919C77.5879 64.0711 76.666 64.411 75.5544 64.4115C74.6714 64.4194 73.8093 64.1459 73.0958 63.6314C72.3638 63.1114 71.9694 62.4171 71.9126 61.5486L71.7809 58.5111H64.4452C63.7427 59.6687 63.1353 60.6235 62.6231 61.3755C62.2027 62.0095 61.7335 62.6106 61.2199 63.1735C60.7945 63.6223 60.3772 63.9406 59.9681 64.1283C59.5566 64.3158 59.1086 64.4119 58.6556 64.4099C57.5718 64.4099 56.6779 64.0701 55.9737 63.3904C55.2696 62.7107 54.9183 61.8211 54.9199 60.7218C54.9199 60.404 55.0151 60.028 55.2055 59.5938C55.3344 59.2784 55.4887 58.9737 55.6669 58.6827L72.042 33.9929C72.5266 33.2526 73.1808 32.6358 73.9516 32.1925C74.7161 31.747 75.5884 31.5146 76.4757 31.5201C77.3244 31.5201 78.0269 31.8165 78.5833 32.4093C79.1396 33.0022 79.4178 33.7614 79.4178 34.6871V60.7233Z" fill="#1B5A96"/>
<path d="M102.961 51.6965V60.5486C102.962 61.0563 102.862 61.5592 102.666 62.0284C102.47 62.4976 102.182 62.9238 101.819 63.2826C101.456 63.6415 101.024 63.9258 100.55 64.1192C100.075 64.3127 99.5667 64.4115 99.0533 64.41C98.5446 64.414 98.0416 64.3027 97.5831 64.0847C97.1363 63.8728 96.7347 63.5783 96.3999 63.2172C96.0613 62.8526 95.8 62.4244 95.6316 61.9582C95.458 61.4929 95.3688 61.0009 95.3682 60.5049V35.5117C95.3682 34.4123 95.7121 33.5022 96.3999 32.7814C97.0877 32.0607 97.973 31.699 99.0557 31.6964H105.773C107.138 31.6825 108.49 31.9481 109.746 32.4764C110.929 32.9754 111.996 33.7062 112.885 34.6247C113.77 35.5458 114.463 36.6291 114.927 37.8136C115.418 39.0729 115.664 40.4127 115.652 41.7623C115.652 43.9039 115.234 45.6902 114.4 47.1214C113.565 48.5525 112.358 49.7312 110.778 50.6574L114.773 59.0751C115.034 59.5864 115.169 60.1514 115.167 60.7241C115.166 61.1939 115.069 61.6587 114.883 62.0908C114.693 62.5374 114.417 62.9429 114.07 63.2843C113.711 63.6373 113.285 63.9176 112.818 64.1096C112.324 64.3137 111.794 64.417 111.259 64.4131C110.577 64.4098 109.908 64.2209 109.327 63.867C108.705 63.5005 108.201 62.9664 107.875 62.3272L102.961 51.6965ZM102.961 39.1998V44.537H105.771C106.21 44.537 106.575 44.4364 106.869 44.2336C107.149 44.044 107.388 43.8005 107.571 43.5175C107.746 43.2444 107.872 42.9436 107.944 42.6282C108.013 42.3438 108.05 42.0526 108.054 41.76C108.049 41.4965 108.012 41.2346 107.944 40.9799C107.868 40.6859 107.742 40.4069 107.571 40.1554C107.386 39.886 107.147 39.6572 106.869 39.483C106.575 39.295 106.21 39.2006 105.771 39.2006L102.961 39.1998Z" fill="#1B5A96"/>
<path d="M54.9963 41.6734C54.1627 39.75 52.9715 37.9983 51.4846 36.5094C49.9845 35.0214 48.2112 33.8301 46.2598 32.9991C45.663 32.7406 45.0502 32.5199 44.4251 32.3384C42.9319 31.9071 41.3836 31.6912 39.8281 31.6971H32.9791C31.7786 31.6971 30.776 32.0872 29.9715 32.8672C29.1669 33.6473 28.7647 34.6453 28.7647 35.8611V60.2873C28.7638 60.8039 28.876 61.3146 29.0936 61.7842C29.5233 62.7298 30.289 63.4864 31.2454 63.9107C31.7205 64.1259 32.2372 64.2369 32.7598 64.236H39.8281C40.5581 64.2368 41.2874 64.1907 42.0114 64.0979C43.4765 63.912 44.9073 63.5204 46.2606 62.9348C50.2007 61.2614 53.3319 58.1431 54.9963 54.2348C55.8615 52.2407 56.3014 50.0916 56.2883 47.9217C56.2996 45.7729 55.8596 43.6453 54.9963 41.6734ZM48.0377 51.4796C47.6223 52.5212 46.9948 53.4672 46.1943 54.2589C45.3937 55.0506 44.4371 55.6712 43.3839 56.082C43.1283 56.1849 42.8664 56.2739 42.599 56.3526C41.6988 56.611 40.7655 56.7392 39.8281 56.7333H36.3574V39.1998H40.0473C41.3352 39.1998 42.5133 39.4169 43.5819 39.8512C43.671 39.887 43.7578 39.9292 43.8453 39.965C44.7721 40.368 45.6137 40.9402 46.326 41.6515C47.1004 42.4384 47.6996 43.377 48.085 44.4067C48.5042 45.5317 48.7124 46.7229 48.6995 47.9217C48.6974 49.2229 48.4768 50.4088 48.0377 51.4796Z" fill="#FB9100"/>
<path d="M90.1478 32.5825C89.4642 31.9179 88.6278 31.565 87.6387 31.524C87.574 31.524 87.5077 31.524 87.4415 31.524C86.9455 31.5157 86.4528 31.6054 85.9923 31.7879C85.5318 31.9703 85.1127 32.2418 84.7596 32.5864C84.0171 33.2963 83.6464 34.1715 83.6475 35.2121V60.7218C83.6475 61.7619 84.0182 62.6368 84.7596 63.3467C85.1125 63.6917 85.5315 63.9635 85.992 64.1461C86.4526 64.3287 86.9454 64.4184 87.4415 64.4099C87.5077 64.4099 87.574 64.4099 87.6387 64.406C88.6283 64.3655 89.4647 64.0123 90.1478 63.3467C90.875 62.6384 91.2389 61.7634 91.2395 60.7218V35.2082C91.2395 34.1666 90.8756 33.2913 90.1478 32.5825Z" fill="#1B5A96"/>
<path d="M134.572 51.6098C135.654 51.6098 136.554 51.2482 137.272 50.5248C137.989 49.8014 138.348 48.9048 138.347 47.8351C138.347 46.795 137.988 45.9125 137.272 45.1876C136.555 44.4626 135.655 44.1012 134.572 44.1033H127.108V39.1998H134.572C135.654 39.1998 136.554 38.8311 137.272 38.0937C137.621 37.7418 137.896 37.3246 138.081 36.8664C138.265 36.4082 138.356 35.9182 138.347 35.4251C138.347 34.385 137.988 33.5027 137.272 32.7783C136.555 32.0539 135.655 31.6922 134.572 31.6932H123.292C122.24 31.6932 121.346 32.0549 120.61 32.7783C119.874 33.5017 119.508 34.3982 119.512 35.468V60.4612C119.504 60.9563 119.597 61.4479 119.785 61.9065C119.974 62.3651 120.255 62.7812 120.61 63.1298C121.051 63.5864 121.607 63.9191 122.22 64.094C122.568 64.1904 122.927 64.2384 123.288 64.2367H134.568C135.65 64.2367 136.55 63.8751 137.268 63.1517C137.985 62.4283 138.344 61.546 138.343 60.5049C138.352 60.0118 138.261 59.5218 138.077 59.0636C137.892 58.6054 137.617 58.1882 137.268 57.8363C137.006 57.5649 136.704 57.3355 136.372 57.1561C135.816 56.8663 135.196 56.7198 134.568 56.7302H127.104V51.6098H134.572Z" fill="#1B5A96"/>
<path d="M168.706 41.6734C168.662 41.5735 168.617 41.4745 168.572 41.3762C167.747 39.5683 166.603 37.9203 165.194 36.5093C163.694 35.0213 161.921 33.8299 159.97 32.999C157.941 32.1261 155.75 31.6827 153.537 31.6971H146.688C145.488 31.6971 144.485 32.0872 143.681 32.8672C142.877 33.6473 142.475 34.6452 142.474 35.8611V60.2873C142.473 60.804 142.585 61.3147 142.803 61.7842C143.233 62.7295 143.998 63.4861 144.954 63.9107C145.43 64.1259 145.946 64.2369 146.469 64.236H153.537C155.75 64.25 157.941 63.8066 159.97 62.934C163.909 61.2604 167.041 58.1425 168.706 54.2347C169.572 52.2408 170.013 50.0917 170.001 47.9217C170.011 45.7727 169.57 43.6451 168.706 41.6734ZM161.749 51.4796C161.333 52.521 160.706 53.4668 159.905 54.2585C159.105 55.0502 158.148 55.6708 157.095 56.0819C155.964 56.5254 154.756 56.7466 153.539 56.7333H150.068V39.1998H153.756C155.044 39.1998 156.222 39.4169 157.29 39.8511C158.319 40.2597 159.253 40.8724 160.034 41.6515C160.807 42.4387 161.406 43.3772 161.79 44.4067C161.822 44.4886 161.85 44.5729 161.878 44.6563C162.237 45.7081 162.415 46.8118 162.405 47.9217C162.406 49.2228 162.187 50.4088 161.749 51.4796Z" fill="#1B5A96"/>
</g>
<defs>
<clipPath id="clip0_108_480">
<rect width="170" height="64.4099" fill="white"/>
</clipPath>
</defs>
</svg>
