<svg xmlns="http://www.w3.org/2000/svg" width="136" height="136" fill="none" xmlns:v="https://vecta.io/nano"><path d="M115.195 29.781h-4.392a14.04 14.04 0 0 0 .989-5.182c0-2.138-.466-4.193-1.386-6.109a1.72 1.72 0 0 0-3.101 1.488 10.6 10.6 0 0 1 1.046 4.62c0 5.899-4.799 10.698-10.697 10.698s-10.698-4.799-10.698-10.698 4.799-10.697 10.698-10.697c1.687 0 3.303.384 4.804 1.14a1.72 1.72 0 0 0 1.548-3.072 13.99 13.99 0 0 0-6.352-1.508c-7.795 0-14.138 6.342-14.138 14.138 0 1.829.353 3.576.988 5.182h-6.097c-2.547-3.739-6.837-6.199-11.692-6.199s-9.145 2.46-11.692 6.199H18.236a5.17 5.17 0 0 0-5.16 5.16v63.291a4.02 4.02 0 0 0 4.013 4.014h31.582v4.082a8.5 8.5 0 0 0 6.762 8.307v1.166h-.425a2.87 2.87 0 0 0-2.867 2.867v6.349a2.87 2.87 0 0 0 2.867 2.867h23.415a2.87 2.87 0 0 0 2.867-2.867v-6.35a2.87 2.87 0 0 0-2.867-2.866h-.801v-1.098c4.04-.646 7.138-4.156 7.138-8.376v-4.081h11.311a1.72 1.72 0 1 0 0-3.44H84.76v-9.668c0-3.153-2.514-5.801-5.604-5.905-1.584-.053-3.09.525-4.23 1.628l-.05.049a5.78 5.78 0 0 0-4.079-1.68c-1.59 0-3.032.643-4.081 1.682a5.78 5.78 0 0 0-4.081-1.682c-.84 0-1.639.18-2.361.502v-7.159h24.565c-.076.592-.119 1.195-.119 1.807 0 7.796 6.342 14.138 14.138 14.138s14.137-6.342 14.137-14.138c0-7.609-6.043-13.83-13.582-14.123-.819-5.042-5.201-8.904-10.471-8.904H59.836a1.72 1.72 0 1 0 0 3.44h29.105c3.467 0 6.366 2.473 7.028 5.747a14.19 14.19 0 0 0-10.236 8.593H59.899a5.78 5.78 0 0 0-1.394-2.111 5.76 5.76 0 0 0-4.23-1.627c-2.344.078-4.355 1.622-5.19 3.739h-4.594a7.18 7.18 0 0 1-7.17-7.17 7.18 7.18 0 0 1 7.17-7.17h7.318a1.72 1.72 0 1 0 0-3.44h-7.318c-5.85 0-10.61 4.76-10.61 10.61s4.759 10.61 10.61 10.61h4.181v22.233H17.09c-.316 0-.573-.257-.573-.573V45.223h38.226c2.504 3.981 6.934 6.635 11.974 6.635s9.47-2.653 11.974-6.635h38.226v53.009c0 .316-.257.573-.573.573h-12.244a1.72 1.72 0 1 0 0 3.441h12.244a4.02 4.02 0 0 0 4.013-4.014V34.942a5.17 5.17 0 0 0-5.16-5.16zM98.857 67.682c5.898 0 10.697 4.799 10.697 10.698s-4.799 10.698-10.697 10.698-10.698-4.799-10.698-10.698 4.799-10.698 10.698-10.698zM77.85 119.241v5.203H55.582v-5.203H77.85zM52.112 75.298c0-1.318 1.022-2.425 2.279-2.466a2.35 2.35 0 0 1 1.724.662 2.34 2.34 0 0 1 .72 1.697V89.03a1.72 1.72 0 1 0 3.44 0c0-1.302 1.059-2.361 2.361-2.361s2.361 1.059 2.361 2.361a1.72 1.72 0 1 0 3.44 0c0-1.302 1.059-2.361 2.361-2.361s2.361 1.059 2.361 2.361a1.72 1.72 0 1 0 3.44 0 2.34 2.34 0 0 1 .72-1.697 2.36 2.36 0 0 1 1.724-.662c1.257.042 2.279 1.149 2.279 2.467v17.19a5.05 5.05 0 0 1-5.042 5.043h-.376a1.72 1.72 0 0 0-1.72 1.72v2.711H58.874v-2.711a1.72 1.72 0 0 0-1.72-1.72 5.05 5.05 0 0 1-5.042-5.043V75.298zM29.766 41.783h-13.25v-6.841a1.72 1.72 0 0 1 .035-.346c.161-.783.855-1.374 1.685-1.374h11.53v8.561zm23.409 0h-19.97v-8.561h20.11a14.07 14.07 0 0 0-.738 4.498c0 1.412.211 2.776.598 4.063zm13.54 6.635c-5.899 0-10.698-4.799-10.698-10.698s4.799-10.697 10.698-10.697 10.698 4.799 10.698 10.698-4.799 10.697-10.698 10.697zm50.199-6.635h-36.66a14.09 14.09 0 0 0 .598-4.063c0-1.573-.262-3.084-.738-4.498h6.346c2.588 3.351 6.641 5.515 11.192 5.515s8.605-2.164 11.192-5.515h6.349c.948 0 1.72.772 1.72 1.72v6.841z" fill="#ec1f27"/><path d="M46.229 65.962a1.72 1.72 0 0 0 1.72 1.72h37.536a1.72 1.72 0 1 0 0-3.44H47.949a1.72 1.72 0 0 0-1.72 1.72z" fill="#515151"/><path d="M97.394 80.1h2.925c.511 0 .926.416.926.926a.93.93 0 0 1-.926.927h-5.154a1.72 1.72 0 1 0 0 3.44h1.971v.996a1.72 1.72 0 1 0 3.44 0V85.38a4.37 4.37 0 0 0 4.109-4.354 4.37 4.37 0 0 0-4.366-4.366h-2.925a.93.93 0 0 1-.926-.926.93.93 0 0 1 .926-.927h5.153a1.72 1.72 0 1 0 0-3.44h-1.971v-.996a1.72 1.72 0 0 0-3.44 0v1.009a4.37 4.37 0 0 0-4.109 4.354c0 2.408 1.959 4.366 4.367 4.366zM68.178 36h-2.925a.93.93 0 0 1-.926-.926.93.93 0 0 1 .926-.927h5.154a1.72 1.72 0 0 0 0-3.44h-1.971v-.996a1.72 1.72 0 1 0-3.44 0v1.009a4.37 4.37 0 0 0-4.109 4.354 4.37 4.37 0 0 0 4.366 4.366h2.925c.511 0 .926.416.926.926a.93.93 0 0 1-.926.926h-5.154a1.72 1.72 0 1 0 0 3.44h1.971v.996a1.72 1.72 0 1 0 3.44 0V44.72a4.37 4.37 0 0 0 4.109-4.354A4.37 4.37 0 0 0 68.178 36zm29.477-1.672a1.72 1.72 0 0 0 1.72-1.72v-1.009a4.37 4.37 0 0 0 4.109-4.353 4.37 4.37 0 0 0-4.366-4.366h-2.925a.93.93 0 0 1-.926-.926.93.93 0 0 1 .926-.927h5.153a1.72 1.72 0 0 0 0-3.44h-1.971v-.996a1.72 1.72 0 1 0-3.44 0V17.6a4.37 4.37 0 0 0-4.109 4.354 4.37 4.37 0 0 0 4.366 4.366h2.925a.93.93 0 0 1 .926.926.93.93 0 0 1-.926.927h-5.153a1.72 1.72 0 1 0 0 3.44h1.971v.996a1.72 1.72 0 0 0 1.72 1.72z" fill="#ec1f27"/><path d="M20.16 90.387a5.17 5.17 0 0 0 5.16 5.16 5.17 5.17 0 0 0 5.16-5.16 5.17 5.17 0 0 0-5.16-5.16 5.17 5.17 0 0 0-5.16 5.16zm6.88 0a1.72 1.72 0 1 1-3.44 0 1.72 1.72 0 1 1 3.44 0zm16.167 0a5.17 5.17 0 0 0-5.16-5.16 5.17 5.17 0 0 0-5.16 5.16 5.17 5.17 0 0 0 5.16 5.16 5.17 5.17 0 0 0 5.16-5.16zm-6.88 0a1.72 1.72 0 1 1 3.44 0 1.72 1.72 0 1 1-3.44 0z" fill="#515151"/></svg>