<svg xmlns="http://www.w3.org/2000/svg" width="136" height="136" fill="none" xmlns:v="https://vecta.io/nano"><path d="M19.969 86.489a1.8 1.8 0 1 0 0 3.601h15.726a1.8 1.8 0 1 0 0-3.601H19.969z" fill="#515151"/><path d="M128.748 99.664l-7.581-7.582.001-60.928c0-1.655-1.346-3.001-3.001-3.001l-17.332-.001c-6.823-6.531-16.411-10.362-25.946-10.33-10.025 0-19.149 3.929-25.916 10.326l-16.751-.002a1.8 1.8 0 1 0 0 3.601l13.405.001c-.995 1.219-1.914 2.502-2.753 3.841l-31.426-.002v-3.841l12.37.001a1.8 1.8 0 1 0 0-3.601H10.848c-1.655 0-3.001 1.346-3.001 3.001l-.001 67.22c0 1.655 1.346 3.002 3.001 3.002l24.4.001a1.8 1.8 0 1 0 0-3.601l-23.8-.002.001-58.577 29.432.002a37.45 37.45 0 0 0-2.7 7.561H20.09a1.8 1.8 0 0 0-1.801 1.801V62.96a1.8 1.8 0 0 0 1.801 1.801h18.179c.424 1.688.961 3.332 1.604 4.922H19.97a1.8 1.8 0 1 0 0 3.601h21.586a37.85 37.85 0 0 0 3.044 4.802H19.97a1.8 1.8 0 1 0 0 3.601h27.679c6.876 7.17 16.545 11.641 27.24 11.641a37.64 37.64 0 0 0 18.624-4.905l3.6 3.6a3.44 3.44 0 0 0 4.656.204l5.547 5.547-63.667-.005a1.8 1.8 0 1 0 0 3.601l7.857.001-1.579 5.76-3.113-.001a8.13 8.13 0 0 0-8.118 8.117v.886a1.8 1.8 0 0 0 1.8 1.801l48.017.007h0a1.8 1.8 0 0 0 1.273-.528c.338-.337.528-.795.528-1.273v-.886a8.13 8.13 0 0 0-8.117-8.117l-3.113-.001-1.58-5.763 33.414.002 8.059 8.06a6.86 6.86 0 0 0 4.885 2.023c1.846 0 3.581-.718 4.886-2.023a6.92 6.92 0 0 0-.001-9.771zm-42.127 14.675l-44.229-.007c.424-2.053 2.246-3.601 4.423-3.601l35.384.007c2.177 0 3.999 1.548 4.423 3.601zm-11.27-7.203l-21.688-.005 1.579-5.76 18.529.002 1.58 5.763zm42.217-71.54l-10.646-.001c-.833-1.333-1.748-2.617-2.744-3.841l13.39.001v3.841zM21.891 61.159V50.355h15.608c-.237 1.707-.363 3.449-.363 5.22a37.86 37.86 0 0 0 .414 5.584H21.891zm18.847-5.584c0-18.831 15.32-34.151 34.151-34.151 16.95 0 31.141 12.135 33.743 28.855a1.8 1.8 0 1 0 3.559-.554c-.572-3.673-1.688-7.218-3.285-10.529l8.661.001-.002 49.284-6.024-6.025c.521-.62.807-1.396.807-2.216a3.43 3.43 0 0 0-1.011-2.441l-3.599-3.599a37.56 37.56 0 0 0 4.796-15.752 1.8 1.8 0 0 0-1.661-1.931c-.991-.073-1.855.669-1.93 1.66-1.333 17.69-16.291 31.548-34.054 31.548-18.831 0-34.151-15.32-34.151-34.151zm55.89 30.868a37.99 37.99 0 0 0 3.989-3.24c1.93-1.798 3.649-3.773 5.143-5.888l2.925 2.925-9.13 9.13-2.927-2.927zm29.574 20.444c-.625.625-1.455.969-2.339.969a3.28 3.28 0 0 1-2.338-.969l-17.198-17.197 4.678-4.677 17.197 17.198c1.289 1.289 1.289 3.387 0 4.677z" fill="#fb9100"/><path d="M74.888 25.013c-16.852 0-30.562 13.71-30.562 30.562 0 9.733 4.702 18.972 12.577 24.712a1.8 1.8 0 0 0 2.121-2.91c-6.948-5.065-11.097-13.216-11.097-21.802 0-14.866 12.095-26.961 26.961-26.961s26.961 12.095 26.961 26.961-12.095 26.961-26.961 26.961c-3.062 0-6.065-.509-8.926-1.512a1.8 1.8 0 1 0-1.192 3.398c3.245 1.138 6.649 1.715 10.118 1.715 16.852 0 30.562-13.71 30.562-30.562S91.74 25.013 74.888 25.013z" fill="#515151"/><path d="M75.746 50.924a1.8 1.8 0 1 0 0-3.601h-5.437a1.8 1.8 0 0 0-1.801 1.801v12.904a1.8 1.8 0 0 0 1.801 1.801h5.437a1.8 1.8 0 1 0 0-3.601h-3.637v-2.851h3.236a1.8 1.8 0 1 0 0-3.601h-3.236v-2.851h3.637zm-17.255 9.362c-1.246 0-2.444-.501-3.204-1.339a1.801 1.801 0 1 0-2.669 2.418c1.453 1.603 3.593 2.522 5.872 2.522 2.828 0 5.204-1.811 5.65-4.307.336-1.885-.51-4.343-3.896-5.592l-3.55-1.428c-.19-.103-.272-.289-.245-.551.038-.364.309-.822.956-1.017 1.742-.524 3.374.756 3.425.797a1.801 1.801 0 1 0 2.307-2.766c-.126-.106-3.124-2.578-6.77-1.48-1.929.581-3.303 2.188-3.5 4.095-.178 1.716.629 3.281 2.105 4.084.742.428 2.443 1.073 4.026 1.644.414.153 1.751.717 1.597 1.581-.117.658-.936 1.338-2.104 1.338zm39.684-4.71c0-4.583-3.729-8.312-8.312-8.312s-8.312 3.729-8.312 8.312 3.729 8.312 8.312 8.312 8.312-3.729 8.312-8.312zm-13.023 0a4.72 4.72 0 0 1 4.711-4.711 4.72 4.72 0 0 1 4.711 4.711 4.72 4.72 0 0 1-4.711 4.711 4.72 4.72 0 0 1-4.711-4.711z" fill="#fb9100"/></svg>