<svg xmlns="http://www.w3.org/2000/svg" width="136" height="136" fill="none" xmlns:v="https://vecta.io/nano"><path d="M98.295 48.646h13.623A7.09 7.09 0 0 0 119 41.564V23.482a7.09 7.09 0 0 0-7.082-7.082H95.011c-1.468-3.643-5.011-6.093-9.015-6.093H41.517c-5.359 0-9.72 4.36-9.72 9.72V55.65h-9.681a7.09 7.09 0 0 0-7.082 7.082v18.082a7.09 7.09 0 0 0 7.082 7.082h9.681v28.078c0 5.36 4.36 9.72 9.72 9.72h44.479c5.359 0 9.719-4.36 9.719-9.72v-3.165h5.059a1.63 1.63 0 0 0 1.592-1.289l.705-3.303 2.374-.981 2.836 1.842a1.63 1.63 0 0 0 2.039-.215l4.728-4.735a1.63 1.63 0 0 0 .214-2.038l-1.842-2.836.981-2.367 3.31-.705A1.63 1.63 0 0 0 119 94.588v-6.687a1.63 1.63 0 0 0-1.29-1.593l-3.309-.705-.981-2.373 1.842-2.837a1.63 1.63 0 0 0-.215-2.039l-4.728-4.728a1.63 1.63 0 0 0-2.038-.214l-2.836 1.842-2.374-.981-.705-3.31a1.63 1.63 0 0 0-1.593-1.289h-5.058V51.368l2.58-2.722zm17.448-25.164v18.082a3.83 3.83 0 0 1-3.825 3.825H97.595a1.63 1.63 0 0 0-1.182.508l-3.171 3.346v-2.225a1.63 1.63 0 0 0-1.628-1.629H89.3a3.83 3.83 0 0 1-3.825-3.825V23.482a3.83 3.83 0 0 1 3.825-3.825h22.618a3.83 3.83 0 0 1 3.825 3.825zm-63.108-9.918h22.243v3.001c0 .44-.372.812-.811.812h-20.62c-.44 0-.811-.372-.811-.812v-3.001zM18.292 80.813V62.731a3.83 3.83 0 0 1 3.825-3.825h14.408c.684 3.191 3.528 5.592 6.924 5.592h5.111v16.314a3.83 3.83 0 0 1-3.825 3.825h-2.314a1.63 1.63 0 0 0-1.629 1.628v2.225l-3.171-3.346a1.63 1.63 0 0 0-1.182-.508H22.117a3.83 3.83 0 0 1-3.825-3.825zM43.45 61.242c-2.109 0-3.825-1.713-3.825-3.818V39.335a3.83 3.83 0 0 1 3.825-3.825h22.618a3.83 3.83 0 0 1 3.825 3.825v18.088c0 2.106-1.716 3.819-3.825 3.819h-2.314a1.63 1.63 0 0 0-1.629 1.628v2.225l-3.171-3.345a1.63 1.63 0 0 0-1.182-.508H43.45zm-7.71 26.653l5.499 5.802a1.63 1.63 0 0 0 1.182.508 1.62 1.62 0 0 0 .602-.116 1.63 1.63 0 0 0 1.026-1.513v-4.682h.686a7.09 7.09 0 0 0 7.082-7.082V64.499h5.255l5.499 5.803a1.63 1.63 0 0 0 1.182.508 1.62 1.62 0 0 0 .602-.116 1.63 1.63 0 0 0 1.025-1.513v-4.682h.686a7.09 7.09 0 0 0 7.082-7.075V39.335a7.09 7.09 0 0 0-7.082-7.082H43.45a7.09 7.09 0 0 0-7.082 7.082V55.65h-1.313V20.027a6.47 6.47 0 0 1 6.463-6.463h7.861v3.001c0 2.243 1.825 4.068 4.068 4.068h20.62c2.243 0 4.068-1.825 4.068-4.068v-3.001h7.861a6.46 6.46 0 0 1 5.343 2.836H89.3a7.09 7.09 0 0 0-7.082 7.082v18.082a7.09 7.09 0 0 0 7.082 7.082h.686v4.682a1.63 1.63 0 0 0 2.473 1.39v54.78H35.055V87.895h.685zm59.976-3.359a6.91 6.91 0 0 1 1.715-.215c3.818 0 6.925 3.106 6.925 6.924s-3.107 6.924-6.925 6.924a6.9 6.9 0 0 1-1.715-.215V84.536zm-9.719 37.901h-44.48a6.47 6.47 0 0 1-6.463-6.462v-3.219h57.404v3.219a6.47 6.47 0 0 1-6.463 6.462zm13.459-49.504l.609 2.859a1.63 1.63 0 0 0 .971 1.165l3.957 1.635a1.63 1.63 0 0 0 1.509-.139l2.448-1.59 2.863 2.863-1.59 2.448c-.291.45-.343 1.014-.139 1.509l1.635 3.957a1.63 1.63 0 0 0 1.166.971l2.859.609v4.05l-2.859.609a1.63 1.63 0 0 0-1.165.97l-1.635 3.95c-.206.496-.154 1.06.138 1.51l1.591 2.448-2.865 2.869-2.447-1.589a1.63 1.63 0 0 0-1.509-.14l-3.957 1.636c-.495.204-.858.64-.97 1.165l-.609 2.853h-3.74v-8.27c.564.096 1.136.145 1.715.145 5.614 0 10.182-4.568 10.182-10.182s-4.568-10.181-10.182-10.181c-.579 0-1.151.048-1.715.144v-8.276h3.74zm-60.78 8.546a1.63 1.63 0 0 0 1.612-1.861l-.722-4.996 3.522-3.619a1.63 1.63 0 0 0-.89-2.74l-4.974-.859-2.356-4.468a1.63 1.63 0 0 0-2.881 0l-2.356 4.468-4.974.859a1.63 1.63 0 0 0-.89 2.74l3.522 3.619-.723 4.996a1.63 1.63 0 0 0 .654 1.55c.489.355 1.135.411 1.677.143l4.53-2.231 4.53 2.231a1.62 1.62 0 0 0 .719.168zm-2.449-7.185l.395 2.73-2.476-1.219a1.63 1.63 0 0 0-1.439 0l-2.475 1.219.395-2.73a1.63 1.63 0 0 0-.445-1.369l-1.926-1.979 2.718-.47a1.63 1.63 0 0 0 1.163-.845l1.289-2.445 1.29 2.445a1.63 1.63 0 0 0 1.163.845l2.719.47-1.927 1.979a1.63 1.63 0 0 0-.444 1.369zm63.635-33.176a1.63 1.63 0 0 0 1.496 0c8.338-4.311 9.273-8.946 9.089-11.326-.204-2.622-1.984-4.932-4.431-5.749-1.988-.664-3.979-.224-5.406 1.173-1.426-1.397-3.417-1.837-5.406-1.173-2.447.817-4.227 3.127-4.43 5.749-.185 2.379.75 7.015 9.088 11.326zM94.02 30.045c.12-1.541 1.198-2.573 2.215-2.912a2.46 2.46 0 0 1 .77-.131 1.86 1.86 0 0 1 1.444.666l.936 1.068a1.63 1.63 0 0 0 2.449 0l.935-1.066c.756-.86 1.713-.706 2.216-.538a3.35 3.35 0 0 1 2.215 2.912c.197 2.54-2.194 5.35-6.59 7.78-4.396-2.43-6.787-5.24-6.59-7.78zM55.65 97.372c0-.897.732-1.629 1.629-1.629s1.629.732 1.629 1.629S58.175 99 57.278 99s-1.629-.732-1.629-1.629zm6.476 0c0-.897.732-1.629 1.629-1.629s1.629.732 1.629 1.629S64.65 99 63.754 99s-1.629-.732-1.629-1.629zm.34-41.03l2.295-8.567c.182-.681.04-1.395-.389-1.96a2.25 2.25 0 0 0-1.804-.893h-4.821v-3.917a2.27 2.27 0 0 0-2.268-2.268h-.277a2.25 2.25 0 0 0-1.985 1.168l-2.564 4.621a2.31 2.31 0 0 0-.707-.111h-2.941c-1.28 0-2.321 1.041-2.321 2.321v8.573c0 1.28 1.041 2.321 2.321 2.321h2.941c.518 0 .996-.173 1.382-.461l1.108.639a1.63 1.63 0 0 0 .813.218h7.023c1.015 0 1.915-.684 2.193-1.681zM49.009 54.37H47.94v-6.7h1.069v6.7zm4.676.396l-1.419-.818v-5.619l2.223-4.007v2.227a1.63 1.63 0 0 0 1.629 1.629h5.162l-1.765 6.588h-5.83zm16.214 62.83a1.63 1.63 0 0 1-1.628 1.628h-9.028a1.63 1.63 0 0 1-1.628-1.628 1.63 1.63 0 0 1 1.628-1.629h9.028a1.63 1.63 0 0 1 1.628 1.629z" fill="#8ec640"/><g fill="#515151"><rect x="57" y="116" width="14" height="4" rx="2"/><rect x="53" y="25" width="21" height="2" rx="1"/><circle cx="57.5" cy="97.5" r="2.5"/><circle cx="64.5" cy="97.5" r="2.5"/><circle cx="71.5" cy="97.5" r="2.5"/></g></svg>