<svg xmlns="http://www.w3.org/2000/svg" xmlns:xlink="http://www.w3.org/1999/xlink" width="136" height="136" fill="none" xmlns:v="https://vecta.io/nano"><style><![CDATA[.B{stroke-width:3.6}.C{stroke-miterlimit:10}.D{stroke-linejoin:round}.E{stroke:#973492}.F{stroke-linecap:round}]]></style><mask id="A" maskUnits="userSpaceOnUse" x="5" y="5" width="126" height="126"><path d="M5.229 5.231h125.539v125.538H5.229V5.231z" fill="#fff"/></mask><g mask="url(#A)" class="B C D"><path d="M7.681 43.315H119.37" class="E F"/><use xlink:href="#C" class="E"/><path d="M78.775 21.239h21.935c3.204 0 5.825 2.619 5.825 5.821s-2.621 5.821-5.825 5.821H78.775a5.84 5.84 0 0 1-5.824-5.821 5.84 5.84 0 0 1 5.824-5.821z" stroke="#515151"/><use xlink:href="#C" x="21.503" class="E"/><path d="M45.053 62.175l-4.907 20.534" stroke="#515151" class="F"/><path d="M56.352 80.855l6.943-7.794a.95.95 0 0 0 0-1.236l-6.943-7.794M28.844 80.855L21.9 73.061a.95.95 0 0 1 0-1.236l6.943-7.794" class="E F"/><path d="M104.414 73.012c2.683.598 5.192 1.653 7.451 3.07l2.009-2c1.188-1.195 3.141-1.195 4.337 0l3.162 3.161a3.07 3.07 0 0 1 0 4.335l-2.002 2.007a23.66 23.66 0 0 1 3.058 7.377h2.815a3.08 3.08 0 0 1 3.072 3.063v4.481a3.08 3.08 0 0 1-3.072 3.063h-2.829c-.604 2.64-1.647 5.113-3.044 7.336l2.002 2a3.07 3.07 0 0 1 0 4.335l-3.162 3.168c-1.196 1.194-3.149 1.194-4.337 0l-2.009-2.001c-2.231 1.403-4.712 2.445-7.367 3.05v2.847a3.08 3.08 0 0 1-3.065 3.071H96.95a3.08 3.08 0 0 1-3.065-3.071v-2.854c-2.641-.598-5.122-1.647-7.353-3.043l-2.002 2.001c-1.196 1.194-3.148 1.194-4.337 0l-3.169-3.168c-1.189-1.188-1.189-3.14 0-4.335l2.008-2a23.6 23.6 0 0 1-3.051-7.336h-2.843c-1.689 0-3.065-1.382-3.065-3.063v-4.481c0-1.681 1.377-3.063 3.065-3.063h2.836c.597-2.626 1.626-5.085 3.009-7.301l-2.016-2.021a3.07 3.07 0 0 1 0-4.335l3.162-3.161c1.196-1.195 3.148-1.195 4.337 0l1.995 1.987c2.224-1.41 4.698-2.459 7.34-3.077v-2.827c0-1.688 1.376-3.07 3.065-3.07h4.476c1.689 0 3.072 1.382 3.072 3.07v2.785z" class="E"/><path d="M99.192 83.633c6.978 0 12.636 5.655 12.636 12.636 0 6.974-5.658 12.629-12.636 12.629-6.985 0-12.643-5.655-12.643-12.629a12.64 12.64 0 0 1 12.643-12.636z" class="E"/><path d="M31.325 101.569H16.813c-5.018 0-9.132-4.911-9.132-10.906V21.531c0-6.002 4.107-10.906 9.132-10.906h10.578 82.847c5.025 0 9.132 4.911 9.132 10.906v53.711m-46.232 26.327H53.239m-10.933 0h.047" class="E F"/></g><defs ><path id="C" d="M28.157 32.882c3.211 0 5.831-2.612 5.831-5.821s-2.62-5.821-5.831-5.821c-3.204 0-5.824 2.612-5.824 5.821s2.62 5.821 5.824 5.821z"/></defs></svg>