<svg width="869" height="467" viewBox="0 0 869 467" fill="none" xmlns="http://www.w3.org/2000/svg">
<path d="M26.8967 448.782C34.552 448.782 40.7579 442.576 40.7579 434.921C40.7579 427.266 34.552 421.06 26.8967 421.06C19.2415 421.06 13.0356 427.266 13.0356 434.921C13.0356 442.576 19.2415 448.782 26.8967 448.782Z" fill="#92288D"/>
<path d="M175.494 178.028C181.223 172.3 181.223 163.014 175.494 157.286C169.765 151.559 160.477 151.559 154.749 157.286C149.02 163.014 149.02 172.3 154.749 178.028C160.477 183.756 169.765 183.756 175.494 178.028Z" fill="#FEBE67"/>
<path d="M433.05 29.4315C422.84 28.6609 412.596 37.6306 413.193 48.4965C413.722 58.2022 422.71 65.8386 432.218 65.423C441.804 64.9987 450.343 56.4619 449.806 46.358C449.312 37.0506 441.311 30.0635 433.05 29.4315Z" fill="#92288D"/>
<path d="M820.908 442.807C825.59 438.126 825.59 430.536 820.908 425.855C816.226 421.174 808.635 421.174 803.954 425.855C799.272 430.536 799.272 438.126 803.954 442.807C808.635 447.488 816.226 447.488 820.908 442.807Z" fill="#92288D"/>
<path d="M701.208 151.822C693.44 151.822 687.145 158.116 687.145 165.882C687.145 173.649 693.44 179.943 701.208 179.943C708.975 179.943 715.271 173.649 715.271 165.882C715.271 158.116 708.975 151.822 701.208 151.822Z" fill="#92288D"/>
<path d="M623.792 434.542C623.792 328.55 537.855 242.636 431.854 242.636C325.845 242.636 239.917 328.558 239.917 434.542L623.8 434.542H623.792Z" fill="#92288D"/>
<path d="M192.377 434.542H189.779C189.779 385.191 204.509 337.745 232.375 297.338L234.514 298.809C206.942 338.784 192.377 385.71 192.377 434.533V434.542Z" fill="#515151"/>
<path d="M382.21 200.272C336.843 209.839 295.45 232.298 262.518 265.234L260.683 263.398C293.978 230.108 335.812 207.406 381.682 197.735L382.218 200.281L382.21 200.272Z" fill="#515151"/>
<path d="M566.414 236.419C526.702 209.389 480.175 195.103 431.863 195.103V192.506C480.694 192.506 527.732 206.947 567.878 234.272L566.414 236.419Z" fill="#515151"/>
<path d="M670.155 391.831L667.6 392.29C658.984 343.987 636.019 300.056 601.191 265.233L603.027 263.398C638.228 298.593 661.444 343.009 670.155 391.84V391.831Z" fill="#515151"/>
<path d="M602.118 273.84C607.379 273.84 611.644 269.576 611.644 264.316C611.644 259.056 607.379 254.792 602.118 254.792C596.857 254.792 592.593 259.056 592.593 264.316C592.593 269.576 596.857 273.84 602.118 273.84Z" fill="white"/>
<path d="M609.764 271.97C605.547 276.186 598.68 276.186 594.454 271.97C590.228 267.753 590.237 260.887 594.454 256.662C598.671 252.437 605.538 252.446 609.764 256.662C613.99 260.879 613.981 267.744 609.764 271.97ZM596.29 258.498C593.086 261.701 593.086 266.922 596.29 270.134C599.494 273.346 604.716 273.338 607.928 270.134C611.141 266.931 611.132 261.71 607.928 258.498C604.724 255.286 599.503 255.294 596.29 258.498Z" fill="#515151"/>
<path d="M441.38 193.804C441.38 188.54 437.119 184.281 431.855 184.281C426.59 184.281 422.329 188.54 422.329 193.804C422.329 199.069 426.59 203.328 431.855 203.328C437.119 203.328 441.38 199.069 441.38 193.804Z" fill="white" fill-opacity="0.94"/>
<path d="M439.51 201.458C437.466 203.502 434.747 204.627 431.855 204.627C428.962 204.627 426.243 203.502 424.2 201.458C422.156 199.415 421.03 196.696 421.03 193.804C421.03 190.913 422.156 188.194 424.2 186.151C426.243 184.107 428.962 182.982 431.855 182.982C434.747 182.982 437.466 184.107 439.51 186.151C441.553 188.194 442.679 190.913 442.679 193.804C442.679 196.696 441.553 199.415 439.51 201.458ZM426.035 187.986C424.485 189.536 423.628 191.605 423.628 193.804C423.628 196.004 424.485 198.064 426.035 199.623C427.585 201.181 429.655 202.03 431.855 202.03C434.054 202.03 436.115 201.173 437.674 199.623C439.224 198.073 440.081 196.004 440.081 193.804C440.081 191.605 439.224 189.545 437.674 187.986C436.124 186.428 434.054 185.579 431.855 185.579C429.655 185.579 427.594 186.436 426.035 187.986Z" fill="#515151"/>
<path d="M271.222 264.212C271.222 258.948 266.961 254.688 261.696 254.688C256.431 254.688 252.171 258.948 252.171 264.212C252.171 269.476 256.431 273.736 261.696 273.736C266.961 273.736 271.222 269.476 271.222 264.212Z" fill="#FEBE67"/>
<path d="M269.351 271.866C267.307 273.909 264.588 275.035 261.696 275.035C255.73 275.035 250.872 270.177 250.872 264.212C250.872 261.32 251.997 258.602 254.041 256.558C256.085 254.515 258.804 253.389 261.696 253.389C264.588 253.389 267.307 254.515 269.351 256.558C271.395 258.602 272.52 261.32 272.52 264.212C272.52 267.104 271.395 269.822 269.351 271.866ZM255.877 258.394C254.327 259.944 253.469 262.013 253.469 264.212C253.469 268.749 257.158 272.437 261.696 272.437C263.895 272.437 265.956 271.58 267.515 270.03C269.074 268.48 269.922 266.411 269.922 264.212C269.922 262.013 269.065 259.952 267.515 258.394C265.965 256.835 263.895 255.987 261.696 255.987C259.496 255.987 257.435 256.844 255.877 258.394Z" fill="#515151"/>
<path d="M169.819 435.762C169.498 436.083 169.048 436.273 168.598 436.273C168.147 436.273 167.697 436.083 167.377 435.762C167.056 435.442 166.866 435.001 166.866 434.542C166.866 433.633 167.68 432.81 168.598 432.81C169.048 432.81 169.507 432.992 169.819 433.312C170.13 433.633 170.321 434.083 170.33 434.542C170.33 434.992 170.139 435.442 169.819 435.762Z" fill="#515151"/>
<path d="M152.05 436.273C151.097 436.273 150.318 435.494 150.318 434.542C150.318 433.589 151.097 432.81 152.05 432.81C153.002 432.81 153.781 433.589 153.781 434.542C153.781 435.018 153.591 435.451 153.271 435.771C152.959 436.083 152.526 436.273 152.05 436.273ZM135.501 436.273C134.54 436.273 133.761 435.503 133.769 434.542C133.769 433.589 134.54 432.819 135.493 432.819C136.445 432.819 137.225 433.598 137.225 434.55C137.225 435.027 137.025 435.459 136.714 435.771C136.402 436.083 135.969 436.282 135.493 436.282L135.501 436.273ZM118.953 436.273C117.992 436.273 117.221 435.494 117.221 434.542C117.221 433.589 118.001 432.81 118.953 432.81C119.906 432.81 120.676 433.581 120.685 434.542C120.685 435.018 120.486 435.451 120.174 435.762C119.854 436.083 119.429 436.273 118.953 436.273Z" fill="#515151"/>
<path d="M103.626 435.771C103.305 436.091 102.855 436.273 102.405 436.273C101.946 436.273 101.496 436.091 101.184 435.771C100.872 435.451 100.673 435.009 100.673 434.542C100.673 433.633 101.496 432.819 102.405 432.81C102.864 432.81 103.305 433.001 103.626 433.321C103.946 433.641 104.137 434.083 104.137 434.542C104.137 435.001 103.955 435.451 103.626 435.771Z" fill="#515151"/>
<path d="M762.543 435.771C762.222 436.092 761.772 436.274 761.322 436.274C760.854 436.274 760.412 436.092 760.101 435.771C759.789 435.451 759.59 435.001 759.59 434.542C759.59 433.633 760.395 432.819 761.313 432.819C761.772 432.819 762.222 433.001 762.543 433.33C762.863 433.659 763.045 434.092 763.054 434.551C763.054 435.01 762.872 435.46 762.543 435.78V435.771Z" fill="#515151"/>
<path d="M744.765 436.282C743.804 436.282 743.033 435.503 743.033 434.551C743.033 433.598 743.812 432.819 744.765 432.819C745.718 432.819 746.488 433.59 746.497 434.551C746.497 435.027 746.298 435.46 745.986 435.771C745.666 436.092 745.241 436.282 744.765 436.282ZM728.217 436.282C727.264 436.282 726.485 435.503 726.485 434.551C726.485 433.598 727.256 432.828 728.217 432.819C729.169 432.819 729.949 433.598 729.949 434.551C729.949 435.036 729.749 435.468 729.438 435.78C729.126 436.092 728.693 436.282 728.217 436.282ZM711.668 436.282C710.716 436.282 709.937 435.503 709.937 434.551C709.937 433.598 710.716 432.819 711.668 432.819C712.621 432.819 713.4 433.598 713.4 434.551C713.4 435.027 713.201 435.46 712.889 435.771C712.569 436.092 712.145 436.282 711.668 436.282Z" fill="#515151"/>
<path d="M696.333 435.771C696.012 436.092 695.571 436.282 695.112 436.274C694.661 436.274 694.211 436.083 693.891 435.763C693.57 435.442 693.38 435.001 693.38 434.542C693.38 433.633 694.194 432.81 695.103 432.802C695.562 432.802 696.004 432.992 696.324 433.313C696.645 433.633 696.835 434.074 696.835 434.533C696.835 434.992 696.653 435.442 696.324 435.763L696.333 435.771Z" fill="#515151"/>
<path d="M246.931 249.641C246.611 249.961 246.161 250.151 245.702 250.151C245.251 250.151 244.801 249.961 244.481 249.641C244.16 249.32 243.97 248.879 243.97 248.42C243.97 247.511 244.792 246.688 245.702 246.688C246.161 246.688 246.611 246.87 246.931 247.199C247.252 247.528 247.434 247.97 247.434 248.42C247.434 248.87 247.252 249.329 246.931 249.641Z" fill="#515151"/>
<path d="M232.782 237.943C232.106 237.268 232.106 236.177 232.782 235.493C233.457 234.818 234.548 234.818 235.232 235.493C235.908 236.169 235.908 237.268 235.232 237.943C234.557 238.619 233.457 238.619 232.782 237.943ZM221.083 226.246C220.407 225.571 220.407 224.48 221.083 223.796C221.758 223.121 222.849 223.121 223.533 223.796C224.209 224.472 224.209 225.571 223.533 226.246C222.858 226.922 221.758 226.922 221.083 226.246ZM209.375 214.541C208.7 213.865 208.7 212.775 209.375 212.091C210.051 211.415 211.15 211.415 211.826 212.091C212.501 212.766 212.51 213.874 211.826 214.549C211.15 215.225 210.051 215.225 209.367 214.549L209.375 214.541Z" fill="#515151"/>
<path d="M200.118 202.844C199.798 203.164 199.356 203.355 198.897 203.355C198.438 203.355 197.997 203.164 197.676 202.844C197.356 202.523 197.166 202.082 197.166 201.623C197.166 200.705 197.988 199.891 198.897 199.891C199.348 199.891 199.807 200.073 200.118 200.394C200.43 200.714 200.629 201.173 200.629 201.623C200.629 202.073 200.439 202.523 200.118 202.844Z" fill="#515151"/>
<path d="M433.076 172.558C432.756 172.878 432.314 173.069 431.855 173.069C431.396 173.069 430.954 172.878 430.634 172.558C430.314 172.238 430.123 171.796 430.123 171.337C430.123 170.428 430.946 169.597 431.855 169.605C432.305 169.605 432.764 169.787 433.076 170.108C433.388 170.428 433.578 170.878 433.587 171.337C433.587 171.787 433.396 172.238 433.076 172.558Z" fill="#515151"/>
<path d="M431.855 156.514C430.902 156.514 430.123 155.735 430.123 154.783C430.123 153.822 430.902 153.051 431.855 153.051C432.807 153.051 433.587 153.83 433.587 154.783C433.587 155.259 433.396 155.692 433.085 156.004C432.773 156.315 432.331 156.514 431.855 156.514ZM431.855 139.969C430.902 139.969 430.123 139.19 430.123 138.237C430.123 137.285 430.902 136.506 431.855 136.506C432.807 136.506 433.587 137.285 433.587 138.237C433.587 138.714 433.388 139.146 433.076 139.458C432.764 139.77 432.331 139.969 431.855 139.969ZM431.855 123.423C430.902 123.423 430.132 122.653 430.132 121.7C430.132 120.739 430.902 119.96 431.864 119.969C432.816 119.969 433.587 120.739 433.587 121.692C433.587 122.168 433.396 122.601 433.085 122.913C432.764 123.233 432.331 123.423 431.855 123.423Z" fill="#515151"/>
<path d="M433.085 106.367C432.764 106.687 432.314 106.869 431.864 106.869C431.405 106.869 430.954 106.687 430.643 106.367C430.331 106.047 430.132 105.605 430.132 105.146C430.132 104.237 430.963 103.406 431.872 103.406C432.331 103.406 432.773 103.596 433.093 103.917C433.414 104.237 433.604 104.679 433.604 105.138C433.604 105.596 433.422 106.047 433.093 106.367H433.085Z" fill="#515151"/>
<path d="M619.237 249.64C618.917 249.961 618.475 250.151 618.016 250.151C617.557 250.151 617.107 249.952 616.795 249.64C616.483 249.329 616.284 248.879 616.284 248.42C616.284 247.502 617.098 246.688 618.007 246.679C618.475 246.679 618.917 246.87 619.237 247.19C619.557 247.511 619.748 247.952 619.739 248.411C619.739 248.87 619.557 249.32 619.237 249.632V249.64Z" fill="#515151"/>
<path d="M651.892 214.549C651.208 213.865 651.216 212.775 651.892 212.099C652.567 211.424 653.658 211.415 654.342 212.099C655.018 212.775 655.018 213.865 654.342 214.549C653.667 215.225 652.567 215.225 651.892 214.549ZM640.193 226.246C639.509 225.562 639.509 224.48 640.193 223.796C640.877 223.112 641.959 223.112 642.643 223.796C643.319 224.472 643.327 225.562 642.643 226.246C641.959 226.93 640.868 226.922 640.193 226.246ZM628.494 237.943C627.81 237.259 627.818 236.177 628.494 235.493C629.169 234.818 630.26 234.809 630.944 235.493C631.62 236.169 631.62 237.268 630.944 237.943C630.269 238.619 629.169 238.619 628.494 237.943Z" fill="#515151"/>
<path d="M666.041 202.844C665.721 203.164 665.279 203.355 664.82 203.346C664.37 203.346 663.92 203.173 663.599 202.844C663.279 202.515 663.097 202.073 663.097 201.623C663.097 200.714 663.911 199.891 664.829 199.891C665.279 199.891 665.721 200.073 666.05 200.402C666.379 200.731 666.561 201.164 666.561 201.623C666.561 202.082 666.379 202.532 666.05 202.852L666.041 202.844Z" fill="#515151"/>
<path d="M378.408 213.995L376.477 212.264L388.713 198.619L375.074 186.385L376.806 184.445L392.385 198.419L378.408 213.995Z" fill="#515151"/>
<path d="M575.602 241.909L554.984 245.493L554.542 242.93L572.597 239.796L569.462 221.736L572.017 221.294L575.602 241.909Z" fill="#515151"/>
<path d="M668.631 402.542L653.745 387.832L655.572 385.987L668.613 398.862L681.49 385.832L683.343 387.65L668.631 402.542Z" fill="#515151"/>
<path d="M242.879 309.502L240.29 309.736L238.662 291.476L220.408 293.112L220.174 290.524L241.017 288.662L242.879 309.502Z" fill="#515151"/>
<path d="M441.414 81.0854C441.181 81.3192 440.86 81.4491 440.531 81.4491H423.645C422.952 81.4491 422.398 80.8863 422.398 80.2023V73.1287C421.125 71.8906 419.705 70.6525 418.216 69.3538C412.128 64.0291 405.218 58.0031 405.218 48.6957C405.218 41.622 407.971 34.9727 412.977 29.9683C417.982 24.964 424.632 22.2107 431.707 22.2107C438.782 22.2107 445.432 24.964 450.429 29.9683C455.425 34.964 458.188 41.622 458.179 48.6957C458.179 56.1502 453.538 61.7433 449.494 65.7867C447.978 67.3018 446.437 68.6958 444.947 70.0378C443.796 71.0767 442.713 72.0551 441.743 72.9988L441.778 80.1937C441.778 80.5313 441.631 80.8257 441.414 81.0854ZM424.892 78.9556H439.276L439.241 72.4966C439.241 72.159 439.371 71.8386 439.605 71.6049C440.696 70.514 441.943 69.3884 443.268 68.1936C444.731 66.8689 446.255 65.5009 447.718 64.0291C451.425 60.3234 455.668 55.2412 455.668 48.7043C455.668 42.2974 453.174 36.2714 448.645 31.7432C444.116 27.215 438.089 24.7215 431.681 24.7215C425.273 24.7215 419.255 27.215 414.726 31.7432C410.197 36.2714 407.703 42.2974 407.703 48.7043C407.703 56.8775 413.877 62.2628 419.844 67.475C421.515 68.9295 423.091 70.3062 424.511 71.7261C424.745 71.9599 424.875 72.2802 424.875 72.6092V78.9556H424.892Z" fill="#515151"/>
<path d="M434.6 93.146C434.374 93.3711 434.063 93.5096 433.716 93.5096H429.69C428.997 93.5096 428.434 92.9555 428.434 92.2629C428.434 91.5789 428.997 91.0161 429.681 91.0161H433.708C434.4 91.0161 434.955 91.5789 434.955 92.2629C434.955 92.6092 434.816 92.9209 434.591 93.146H434.6Z" fill="#515151"/>
<path d="M440.185 87.5443C439.96 87.7694 439.639 87.9079 439.302 87.9079H424.884C424.191 87.9079 423.637 87.3452 423.628 86.6525C423.628 85.9685 424.191 85.4058 424.875 85.4058H439.293C439.986 85.4058 440.549 85.9685 440.54 86.6612C440.54 87.0075 440.401 87.3192 440.176 87.5443H440.185Z" fill="#515151"/>
<path d="M440.836 45.1357L440.81 45.1622L432.827 52.9951C432.333 53.4802 431.545 53.4684 431.06 52.9835L423.217 45.0018C422.732 44.5083 422.735 43.7029 423.229 43.2351C423.722 42.7499 424.511 42.7618 424.996 43.2466L431.965 50.3348L439.054 43.3752C439.548 42.8901 440.336 42.9019 440.822 43.3954C441.298 43.8805 441.295 44.6512 440.827 45.1359L440.836 45.1357Z" fill="white"/>
<path d="M174.14 165.51L174.115 165.536L166.242 173.26C165.756 173.739 164.978 173.727 164.5 173.249L156.766 165.378C156.287 164.891 156.29 164.097 156.777 163.635C157.264 163.157 158.041 163.169 158.52 163.647L165.392 170.637L172.384 163.774C172.87 163.295 173.648 163.307 174.126 163.794C174.596 164.272 174.593 165.032 174.132 165.51L174.14 165.51Z" fill="white"/>
<path d="M394.714 48.9209C394.489 49.146 394.177 49.2845 393.831 49.2845H384.73C384.046 49.2845 383.474 48.7304 383.474 48.0378C383.474 47.3538 384.037 46.791 384.721 46.791H393.822C394.515 46.791 395.078 47.3451 395.078 48.0291C395.078 48.3754 394.939 48.6871 394.714 48.9122V48.9209Z" fill="#515151"/>
<path d="M479.144 48.9121C478.919 49.1372 478.607 49.2757 478.261 49.2757H469.16C468.475 49.2757 467.913 48.7216 467.913 48.029C467.913 47.3363 468.467 46.7822 469.16 46.7822H478.261C478.953 46.7822 479.516 47.3363 479.516 48.029C479.516 48.3753 479.378 48.687 479.153 48.9121H479.144Z" fill="#515151"/>
<path d="M405.755 22.2886C405.27 22.7735 404.482 22.7735 403.988 22.2886L397.545 15.8643C397.06 15.3795 397.06 14.5829 397.545 14.0981C398.03 13.6132 398.818 13.6046 399.312 14.0981L405.755 20.531C406.239 21.0159 406.239 21.8124 405.755 22.2973V22.2886Z" fill="#515151"/>
<path d="M465.453 81.9773C464.968 82.4622 464.172 82.4708 463.687 81.9773L457.244 75.5531C456.759 75.0682 456.759 74.2717 457.244 73.7868C457.738 73.2933 458.526 73.302 459.011 73.7868L465.453 80.2197C465.938 80.7046 465.938 81.5011 465.453 81.986V81.9773Z" fill="#515151"/>
<path d="M459.019 22.2973C458.534 22.7822 457.746 22.7822 457.253 22.2973C456.768 21.8124 456.768 21.0159 457.253 20.5311L463.678 14.0895C464.163 13.6046 464.96 13.6046 465.445 14.0895C465.938 14.5743 465.938 15.3622 465.445 15.8557L459.019 22.2973Z" fill="#515151"/>
<path d="M399.312 81.9861C398.827 82.471 398.031 82.471 397.546 81.9861C397.061 81.5013 397.052 80.7134 397.546 80.2199L403.98 73.7783C404.465 73.2934 405.253 73.2848 405.746 73.7783C406.24 74.2631 406.24 75.051 405.746 75.5445L399.321 81.9861H399.312Z" fill="#515151"/>
<path d="M432.383 11.2583C432.157 11.4834 431.846 11.6219 431.499 11.6219C430.807 11.6219 430.244 11.0592 430.244 10.3665V1.27557C430.244 0.582924 430.798 0.0288086 431.491 0.0288086C432.183 0.0288086 432.738 0.591582 432.738 1.27557V10.3752C432.738 10.7215 432.599 11.0332 432.374 11.2583H432.383Z" fill="#515151"/>
<path d="M868.873 442.723C868.916 442.611 868.934 442.498 868.942 442.377C868.942 442.343 868.96 442.308 868.96 442.273C868.96 442.117 868.925 441.962 868.864 441.814C868.804 441.667 868.717 441.546 868.604 441.433L862.101 435.052C862.474 434.853 862.742 434.464 862.733 434.005C862.733 433.546 862.456 433.156 862.075 432.966L868.457 426.464C868.457 426.464 868.492 426.403 868.509 426.377C868.587 426.282 868.656 426.187 868.708 426.074C868.752 425.97 868.76 425.866 868.769 425.762C868.769 425.719 868.795 425.676 868.795 425.624C868.795 425.468 868.76 425.312 868.7 425.174C868.639 425.026 868.553 424.897 868.44 424.784C868.44 424.784 868.405 424.767 868.397 424.749C868.293 424.663 868.189 424.576 868.059 424.524C867.938 424.472 867.799 424.455 867.669 424.446C867.652 424.446 867.635 424.438 867.609 424.438C867.609 424.438 867.609 424.438 867.6 424.438H857.278C857.122 424.438 856.966 424.472 856.819 424.533C856.672 424.594 856.55 424.68 856.438 424.793L848.428 432.949L844.826 432.983C844.237 420.438 836.374 408.801 823.896 404.057C807.131 397.676 788.296 406.126 781.914 422.897C775.532 439.659 783.984 458.49 800.757 464.871C817.522 471.252 836.357 462.802 842.739 446.031C844.072 442.524 844.748 438.923 844.843 435.364L848.644 435.33L856.602 443.139C856.602 443.139 856.637 443.156 856.654 443.174C856.758 443.269 856.88 443.347 857.009 443.399C857.131 443.442 857.261 443.468 857.39 443.468C857.408 443.468 857.416 443.468 857.425 443.468H867.764C867.764 443.468 867.808 443.459 867.834 443.451C867.946 443.451 868.05 443.425 868.163 443.382C868.197 443.373 868.232 443.356 868.267 443.347C868.379 443.295 868.492 443.226 868.587 443.13C868.587 443.13 868.604 443.122 868.604 443.113C868.639 443.078 868.648 443.035 868.674 443.001C868.743 442.914 868.812 442.827 868.856 442.723H868.873ZM840.513 445.165C834.599 460.706 817.141 468.542 801.597 462.628C786.054 456.715 778.217 439.26 784.131 423.719C790.046 408.178 807.503 400.342 823.047 406.256C834.581 410.645 841.847 421.381 842.427 432.983L836.495 433.035C835.941 423.806 830.13 415.286 820.943 411.797C808.456 407.044 794.427 413.338 789.673 425.823C784.919 438.308 791.215 452.334 803.71 457.087C816.197 461.84 830.226 455.546 834.98 443.061C835.941 440.542 836.426 437.97 836.521 435.416L842.444 435.364C842.349 438.637 841.743 441.944 840.513 445.165ZM811.14 434.455C811.14 434.957 811.461 435.381 811.911 435.555C812.049 435.607 812.188 435.633 812.344 435.633L818.007 435.581C817.947 435.892 817.877 436.204 817.756 436.507C816.622 439.494 813.262 441.001 810.274 439.866C807.287 438.732 805.78 435.373 806.914 432.386C808.049 429.399 811.409 427.892 814.405 429.026C816.301 429.745 817.592 431.364 817.998 433.208L812.327 433.26C811.668 433.26 811.14 433.806 811.149 434.464L811.14 434.455ZM815.236 426.801C811.019 425.2 806.282 427.321 804.68 431.537C803.078 435.754 805.2 440.481 809.417 442.091C813.634 443.693 818.371 441.572 819.973 437.355C820.198 436.767 820.345 436.161 820.423 435.563L825.757 435.511C825.662 436.758 825.394 438.014 824.926 439.234C822.285 446.178 814.483 449.685 807.529 447.035C800.584 444.394 797.077 436.585 799.718 429.641C802.359 422.697 810.162 419.191 817.115 421.84C822.051 423.719 825.238 428.204 825.723 433.13L820.389 433.174C819.947 430.368 818.059 427.875 815.227 426.793L815.236 426.801ZM817.964 419.624C809.789 416.516 800.61 420.637 797.501 428.801C794.393 436.975 798.515 446.152 806.689 449.26C814.864 452.369 824.043 448.247 827.152 440.083C827.723 438.576 828.052 437.026 828.156 435.494L834.148 435.442C834.044 437.702 833.603 439.988 832.754 442.221C828.468 453.485 815.816 459.156 804.55 454.879C793.284 450.594 787.612 437.944 791.89 426.68C796.177 415.416 808.828 409.745 820.094 414.031C828.338 417.165 833.577 424.793 834.114 433.07L828.104 433.122C827.602 427.243 823.835 421.866 817.955 419.632L817.964 419.624ZM857.78 426.801H864.786L858.854 432.836L851.788 432.897L857.78 426.793V426.801ZM858.889 435.217L864.864 441.087H857.919L852.013 435.278L858.897 435.217H858.889Z" fill="#515151"/>
<path d="M203.738 151.64H185.994C185.934 151.64 185.873 151.64 185.813 151.657C185.154 150.817 184.444 150.003 183.682 149.242C178.703 144.263 172.079 141.519 165.03 141.519C157.981 141.519 151.356 144.263 146.377 149.242C145.615 150.003 144.914 150.809 144.256 151.64H126.313C125.69 151.64 125.188 152.142 125.188 152.765V183.017C125.188 183.64 125.69 184.142 126.313 184.142H144.256C144.914 184.973 145.615 185.779 146.377 186.54C151.356 191.519 157.981 194.263 165.03 194.263C172.079 194.263 178.703 191.519 183.682 186.54C184.47 185.753 185.206 184.913 185.882 184.038C186.02 184.108 186.185 184.142 186.349 184.142H203.746C204.041 184.142 204.335 184.021 204.543 183.813C204.751 183.605 204.872 183.32 204.872 183.017V152.765C204.872 152.142 204.37 151.64 203.746 151.64H203.738ZM127.43 181.891V153.891H142.662C140.047 158.047 138.644 162.861 138.644 167.891C138.644 172.921 140.047 177.735 142.662 181.891H127.43ZM165.021 192.012C158.578 192.012 152.517 189.501 147.962 184.947C143.407 180.393 140.896 174.333 140.896 167.891C140.896 161.449 143.407 155.389 147.962 150.835C152.517 146.28 158.578 143.77 165.021 143.77C171.464 143.77 177.525 146.28 182.08 150.835C186.635 155.389 189.146 161.449 189.146 167.891C189.146 174.333 186.635 180.393 182.08 184.947C177.525 189.501 171.464 192.012 165.021 192.012ZM202.612 181.891H187.38C189.995 177.735 191.398 172.921 191.398 167.891C191.398 162.861 189.995 158.047 187.38 153.891H202.612V181.891Z" fill="#515151"/>
<path d="M165.03 147.311C159.531 147.311 154.37 149.449 150.482 153.337C146.594 157.224 144.455 162.393 144.455 167.882C144.455 179.224 153.686 188.454 165.03 188.454C170.529 188.454 175.69 186.315 179.578 182.428C183.466 178.54 185.605 173.372 185.605 167.882C185.605 162.384 183.466 157.224 179.578 153.337C175.69 149.449 170.52 147.311 165.03 147.311ZM183.44 167.882C183.44 172.8 181.526 177.423 178.045 180.895C174.564 184.367 169.949 186.289 165.03 186.289C154.881 186.289 146.62 178.03 146.62 167.882C146.62 162.965 148.534 158.341 152.015 154.869C155.496 151.397 160.12 149.475 165.03 149.475C169.949 149.475 174.573 151.389 178.045 154.869C181.518 158.35 183.44 162.973 183.44 167.882Z" fill="#515151"/>
<path d="M87.6748 434.1H64.554C63.8786 434.1 63.333 434.646 63.333 435.321C63.333 435.996 63.8786 436.542 64.554 436.542H87.6748C88.0125 436.542 88.3156 436.403 88.5408 436.187C88.7659 435.971 88.8958 435.659 88.8958 435.321C88.8958 434.646 88.3502 434.1 87.6748 434.1Z" fill="#515151"/>
<path d="M53.825 434.1C53.3921 419.641 41.5026 408.014 26.946 408.014C19.7586 408.014 13.0043 410.81 7.92114 415.893C2.83803 420.975 0.0410156 427.728 0.0410156 434.914C0.0410156 442.1 2.83803 448.854 7.92114 453.936C13.0043 459.018 19.7586 461.815 26.946 461.815C34.3672 461.815 41.0869 458.802 45.9622 453.927C50.4738 449.416 53.3921 443.313 53.7991 436.551H59.09C59.4277 436.551 59.7308 436.412 59.956 436.196C60.1811 435.979 60.311 435.667 60.311 435.33C60.311 434.654 59.7654 434.109 59.09 434.109H53.825V434.1ZM26.946 459.365C20.4168 459.365 14.2685 456.819 9.65304 452.204C5.03754 447.59 2.49165 441.442 2.49165 434.914C2.49165 428.386 5.03754 422.239 9.65304 417.624C14.2685 413.009 20.4168 410.464 26.946 410.464C40.4288 410.464 51.4004 421.434 51.4004 434.914C51.4004 448.395 40.4288 459.365 26.946 459.365Z" fill="#515151"/>
<path d="M16.7021 418.239C12.9525 420.542 10.0603 424.083 8.56217 428.204C8.32836 428.836 8.65742 429.538 9.28957 429.771C9.74852 429.936 10.2508 429.815 10.5712 429.486C10.6924 429.364 10.7877 429.217 10.8569 429.044C12.1732 425.442 14.7017 422.343 17.9837 420.325C18.5552 419.97 18.7371 419.217 18.382 418.646C18.027 418.074 17.2736 417.892 16.7021 418.247V418.239Z" fill="#515151"/>
<path d="M718.31 137.744L715.522 140.532C714.638 141.415 713.279 141.675 712.153 141.172C711.98 141.094 711.807 141.025 711.642 140.947C710.525 140.48 709.806 139.38 709.806 138.151V134.211C709.806 131.294 707.425 128.913 704.507 128.913H698.584C695.657 128.913 693.284 131.294 693.284 134.211V137.9C693.284 139.146 692.522 140.281 691.388 140.722C691.145 140.817 690.911 140.913 690.678 141.008C689.56 141.484 688.262 141.216 687.378 140.333L684.78 137.735C682.711 135.666 679.351 135.666 677.281 137.735L673.09 141.926C671.021 143.995 671.021 147.354 673.09 149.424L675.688 152.021C676.571 152.904 676.84 154.203 676.363 155.32C676.26 155.553 676.164 155.796 676.078 156.03C675.636 157.164 674.502 157.926 673.255 157.926H669.566C668.154 157.926 666.821 158.48 665.816 159.476C664.812 160.471 664.266 161.805 664.266 163.224V169.147C664.266 172.064 666.647 174.445 669.566 174.445H673.506C674.744 174.445 675.844 175.164 676.303 176.281C676.372 176.454 676.45 176.627 676.528 176.792C677.03 177.917 676.77 179.276 675.887 180.16L673.099 182.947C671.029 185.017 671.029 188.376 673.099 190.445L677.29 194.636C679.36 196.705 682.719 196.705 684.789 194.636L687.837 191.588C688.703 190.722 689.993 190.454 691.119 190.904L691.362 190.999C692.539 191.458 693.301 192.575 693.301 193.839V198.151C693.301 201.069 695.683 203.45 698.601 203.45H704.524C707.451 203.45 709.824 201.069 709.824 198.151V193.58C709.824 192.35 710.56 191.242 711.746 190.74C712.898 190.255 714.214 190.506 715.097 191.389L718.327 194.619C720.397 196.688 723.757 196.688 725.826 194.619L730.018 190.428C732.087 188.359 732.087 184.999 730.018 182.93L726.788 179.701C725.904 178.818 725.645 177.502 726.164 176.298C726.64 175.164 727.749 174.428 728.978 174.428H733.551C736.478 174.428 738.85 172.047 738.85 169.129V163.207C738.85 160.289 736.469 157.908 733.551 157.908H729.238C727.974 157.908 726.857 157.147 726.398 155.969L726.303 155.718C725.852 154.592 726.121 153.311 726.987 152.437L730.035 149.389C732.104 147.32 732.104 143.96 730.035 141.891L725.844 137.701C723.774 135.631 720.414 135.631 718.345 137.701L718.31 137.744ZM728.416 143.519C729.611 144.714 729.611 146.653 728.416 147.848L725.367 150.895C723.861 152.402 723.402 154.636 724.19 156.592L724.276 156.817C725.073 158.861 727.013 160.177 729.204 160.177H733.516C735.205 160.177 736.581 161.553 736.581 163.242V169.164C736.581 170.852 735.205 172.229 733.516 172.229H728.944C726.814 172.229 724.9 173.502 724.043 175.519C723.194 177.519 723.636 179.796 725.168 181.328L728.398 184.558C729.593 185.753 729.593 187.692 728.398 188.887L724.207 193.077C723.012 194.272 721.072 194.272 719.877 193.077L716.647 189.848C715.115 188.315 712.837 187.874 710.794 188.74C710.144 189.008 709.573 189.398 709.096 189.874C708.126 190.844 707.546 192.177 707.555 193.614V198.186C707.555 199.874 706.178 201.251 704.489 201.251H698.566C697.752 201.251 696.982 200.93 696.401 200.35C695.821 199.77 695.501 199 695.501 198.186V193.874C695.501 191.683 694.185 189.744 692.141 188.948L691.916 188.861C689.959 188.073 687.725 188.532 686.218 190.038L683.17 193.086C681.975 194.281 680.035 194.281 678.84 193.086L674.649 188.896C673.454 187.701 673.454 185.761 674.649 184.567L677.437 181.779C678.97 180.246 679.42 177.891 678.546 175.926C678.476 175.77 678.407 175.614 678.346 175.458C677.532 173.51 675.619 172.246 673.48 172.246H669.54C667.851 172.246 666.474 170.87 666.474 169.181V163.259C666.474 162.445 666.795 161.675 667.375 161.095C667.955 160.514 668.726 160.194 669.54 160.194H673.229C675.394 160.194 677.359 158.861 678.139 156.869C678.225 156.653 678.312 156.437 678.407 156.22C679.238 154.255 678.788 151.995 677.255 150.462L674.657 147.865C673.462 146.67 673.462 144.731 674.657 143.536L678.849 139.346C680.044 138.151 681.983 138.151 683.178 139.346L685.776 141.943C687.309 143.475 689.569 143.926 691.535 143.094C691.751 142.999 691.968 142.913 692.184 142.826C694.167 142.047 695.51 140.073 695.51 137.917V134.229C695.51 133.415 695.83 132.644 696.41 132.064C696.99 131.484 697.761 131.164 698.575 131.164H704.498C706.187 131.164 707.564 132.54 707.564 134.229V138.168C707.564 140.307 708.828 142.22 710.776 143.034C710.932 143.103 711.088 143.164 711.252 143.233C713.218 144.107 715.574 143.657 717.106 142.125L719.895 139.337C721.09 138.142 723.029 138.142 724.224 139.337L728.416 143.527V143.519Z" fill="#515151"/>
<path d="M689.483 154.307C689.916 153.874 689.916 153.164 689.483 152.722C689.05 152.281 688.34 152.289 687.898 152.722C684.365 156.255 682.425 160.939 682.425 165.934C682.425 174.229 687.751 181.406 695.683 183.813C695.847 183.865 696.012 183.865 696.177 183.839C696.315 184.922 696.8 185.926 697.588 186.714C698.532 187.657 699.779 188.177 701.112 188.177C702.489 188.177 703.736 187.614 704.637 186.714C705.537 185.813 706.1 184.567 706.1 183.19C706.1 180.445 703.866 178.203 701.112 178.203C698.887 178.203 697.025 179.675 696.384 181.692C696.367 181.692 696.35 181.675 696.332 181.675C689.353 179.562 684.668 173.233 684.668 165.934C684.668 161.545 686.383 157.415 689.483 154.307ZM699.173 181.251C699.666 180.757 700.359 180.445 701.112 180.445C702.628 180.445 703.858 181.675 703.858 183.19C703.858 184.705 702.628 185.935 701.112 185.935C700.376 185.935 699.692 185.649 699.173 185.129C698.653 184.61 698.367 183.917 698.367 183.19C698.367 182.437 698.679 181.744 699.173 181.251Z" fill="#515151"/>
<path d="M706.057 148.021C705.875 145.441 703.736 143.389 701.104 143.389C698.359 143.389 696.116 145.623 696.116 148.376C696.116 151.12 698.35 153.363 701.104 153.363C702.48 153.363 703.727 152.8 704.628 151.9C705.122 151.406 705.494 150.809 705.754 150.142C705.797 150.159 705.84 150.185 705.892 150.194C712.872 152.307 717.557 158.636 717.557 165.934C717.557 170.324 715.842 174.454 712.742 177.562C712.309 177.995 712.309 178.705 712.742 179.147C713.175 179.588 713.885 179.58 714.327 179.147C717.86 175.614 719.799 170.93 719.799 165.934C719.799 157.64 714.474 150.462 706.542 148.056C706.377 148.004 706.221 147.995 706.065 148.021H706.057ZM701.104 151.12C699.588 151.12 698.358 149.891 698.358 148.376C698.358 146.861 699.588 145.631 701.104 145.631C702.619 145.631 703.849 146.861 703.849 148.376C703.849 149.891 702.619 151.12 701.104 151.12Z" fill="#515151"/>
<path d="M191.078 425.018C185.813 425.018 181.553 429.278 181.553 434.542C181.553 439.806 185.813 444.066 191.078 444.066C196.343 444.066 200.604 439.806 200.604 434.542C200.604 429.278 196.343 425.018 191.078 425.018Z" fill="white" fill-opacity="0.94"/>
<path d="M198.733 442.196C196.689 444.239 193.97 445.364 191.078 445.364C185.111 445.364 180.253 440.507 180.253 434.542C180.253 431.65 181.379 428.931 183.423 426.888C185.466 424.845 188.186 423.719 191.078 423.719C193.97 423.719 196.689 424.845 198.733 426.888C200.776 428.931 201.902 431.65 201.902 434.542C201.902 437.434 200.776 440.152 198.733 442.196ZM185.259 428.724C183.709 430.273 182.851 432.343 182.851 434.542C182.851 439.079 186.54 442.767 191.078 442.767C193.277 442.767 195.338 441.91 196.897 440.36C198.456 438.81 199.304 436.741 199.304 434.542C199.304 432.343 198.447 430.282 196.897 428.724C195.347 427.165 193.277 426.317 191.078 426.317C188.878 426.317 186.817 427.174 185.259 428.724Z" fill="#515151"/>
<path d="M672.64 425.018C667.375 425.018 663.115 429.278 663.115 434.542C663.115 439.806 667.375 444.066 672.64 444.066C677.905 444.066 682.166 439.806 682.166 434.542C682.166 429.278 677.905 425.018 672.64 425.018Z" fill="white"/>
<path d="M680.295 442.196C678.252 444.239 675.533 445.364 672.64 445.364C666.674 445.364 661.816 440.507 661.816 434.542C661.816 431.65 662.942 428.931 664.985 426.888C667.029 424.845 669.748 423.719 672.64 423.719C678.607 423.719 683.465 428.576 683.465 434.542C683.465 437.434 682.339 440.152 680.295 442.196ZM666.821 428.724C665.271 430.273 664.414 432.343 664.414 434.542C664.414 439.079 668.103 442.767 672.64 442.767C674.84 442.767 676.901 441.91 678.459 440.36C680.018 438.81 680.867 436.741 680.867 434.542C680.867 430.005 677.178 426.317 672.64 426.317C670.441 426.317 668.38 427.174 666.821 428.724Z" fill="#515151"/>
<path d="M384.407 340.132L376.619 313.952C376.414 313.277 376.194 312.793 375.959 312.5C375.725 312.177 375.314 311.884 374.727 311.62L374.199 311.4V310.96H385.859V311.4L384.935 311.752C384.261 312.016 383.806 312.339 383.571 312.72C383.337 313.101 383.322 313.629 383.527 314.304L388.323 332.608L393.515 317.252L392.503 314.128C392.298 313.512 392.107 313.043 391.931 312.72C391.755 312.397 391.462 312.133 391.051 311.928L390.083 311.4V310.96H401.127V311.4L399.763 311.928C399.177 312.133 398.839 312.441 398.751 312.852C398.693 313.233 398.766 313.732 398.971 314.348L404.559 333.048L409.839 314.7C410.045 313.996 410.118 313.38 410.059 312.852C410.001 312.324 409.634 311.943 408.959 311.708L408.035 311.4V310.96H414.151V311.4L413.007 311.84C412.421 312.045 412.01 312.368 411.775 312.808C411.541 313.248 411.335 313.791 411.159 314.436L403.855 340.132H400.819L394.219 319.452L387.443 340.132H384.407ZM423.344 340.66C421.115 340.66 419.179 340.205 417.536 339.296C415.893 338.357 414.617 337.037 413.708 335.336C412.828 333.635 412.388 331.64 412.388 329.352C412.388 327.064 412.857 325.084 413.796 323.412C414.764 321.74 416.069 320.449 417.712 319.54C419.384 318.631 421.261 318.176 423.344 318.176C425.427 318.176 427.289 318.631 428.932 319.54C430.575 320.42 431.865 321.696 432.804 323.368C433.772 325.04 434.256 327.035 434.256 329.352C434.256 331.669 433.801 333.679 432.892 335.38C432.012 337.052 430.751 338.357 429.108 339.296C427.495 340.205 425.573 340.66 423.344 340.66ZM423.344 339.78C424.371 339.78 425.192 339.487 425.808 338.9C426.424 338.313 426.864 337.272 427.128 335.776C427.421 334.28 427.568 332.168 427.568 329.44C427.568 326.683 427.421 324.556 427.128 323.06C426.864 321.564 426.424 320.523 425.808 319.936C425.192 319.349 424.371 319.056 423.344 319.056C422.317 319.056 421.481 319.349 420.836 319.936C420.22 320.523 419.765 321.564 419.472 323.06C419.208 324.556 419.076 326.683 419.076 329.44C419.076 332.168 419.208 334.28 419.472 335.776C419.765 337.272 420.22 338.313 420.836 338.9C421.481 339.487 422.317 339.78 423.344 339.78ZM437.189 340V339.56L437.849 339.384C438.435 339.208 438.831 338.944 439.037 338.592C439.271 338.24 439.389 337.785 439.389 337.228V323.456C439.389 322.811 439.271 322.341 439.037 322.048C438.831 321.725 438.435 321.505 437.849 321.388L437.189 321.212V320.772L444.757 318.22L445.197 318.66L445.593 322.444V322.796C446.003 321.975 446.531 321.227 447.177 320.552C447.851 319.848 448.585 319.276 449.377 318.836C450.198 318.396 451.005 318.176 451.797 318.176C452.911 318.176 453.762 318.484 454.349 319.1C454.935 319.716 455.229 320.493 455.229 321.432C455.229 322.429 454.935 323.207 454.349 323.764C453.791 324.292 453.117 324.556 452.325 324.556C451.093 324.556 450.007 323.94 449.069 322.708L448.981 322.62C448.687 322.209 448.35 321.989 447.969 321.96C447.587 321.901 447.235 322.077 446.913 322.488C446.619 322.752 446.37 323.075 446.165 323.456C445.989 323.808 445.813 324.219 445.637 324.688V336.964C445.637 338.137 446.15 338.871 447.177 339.164L448.585 339.56V340H437.189ZM456.753 340V339.56L457.413 339.34C458.41 339.017 458.909 338.299 458.909 337.184V313.644C458.909 313.057 458.792 312.617 458.557 312.324C458.322 312.031 457.912 311.796 457.325 311.62L456.753 311.488V311.048L464.805 309.156L465.333 309.552L465.201 315.712V337.184C465.201 338.357 465.685 339.091 466.653 339.384L467.269 339.56V340H456.753ZM473.077 340L465.245 329L473.385 321.476C473.766 321.124 473.986 320.757 474.045 320.376C474.133 319.965 473.884 319.672 473.297 319.496L472.549 319.276V318.836H479.105V319.276L477.785 319.628C477.14 319.833 476.612 320.083 476.201 320.376C475.82 320.64 475.35 321.021 474.793 321.52L469.865 326.14L477.741 337.096C478.21 337.741 478.65 338.24 479.061 338.592C479.472 338.944 480 339.237 480.645 339.472L480.821 339.56V340H473.077ZM356.073 394V393.56L356.953 393.252C357.54 393.076 357.921 392.812 358.097 392.46C358.303 392.108 358.405 391.639 358.405 391.052V367.996C358.405 367.409 358.303 366.94 358.097 366.588C357.892 366.236 357.496 365.957 356.909 365.752L356.073 365.4V364.96H366.765C371.136 364.96 374.289 365.767 376.225 367.38C378.191 368.964 379.173 371.061 379.173 373.672C379.173 375.344 378.763 376.884 377.941 378.292C377.149 379.671 375.829 380.771 373.981 381.592C372.133 382.413 369.64 382.824 366.501 382.824H365.005V390.92C365.005 392.064 365.577 392.812 366.721 393.164L368.041 393.56V394H356.073ZM365.005 381.944H366.677C368.115 381.944 369.288 381.709 370.197 381.24C371.107 380.771 371.781 379.949 372.221 378.776C372.661 377.603 372.881 375.975 372.881 373.892C372.881 371.78 372.632 370.137 372.133 368.964C371.664 367.791 370.96 366.984 370.021 366.544C369.083 366.075 367.909 365.84 366.501 365.84H365.005V381.944ZM381.693 394V393.56L382.353 393.384C382.939 393.208 383.335 392.944 383.541 392.592C383.775 392.24 383.893 391.785 383.893 391.228V377.456C383.893 376.811 383.775 376.341 383.541 376.048C383.335 375.725 382.939 375.505 382.353 375.388L381.693 375.212V374.772L389.261 372.22L389.701 372.66L390.097 376.444V376.796C390.507 375.975 391.035 375.227 391.681 374.552C392.355 373.848 393.089 373.276 393.881 372.836C394.702 372.396 395.509 372.176 396.301 372.176C397.415 372.176 398.266 372.484 398.853 373.1C399.439 373.716 399.733 374.493 399.733 375.432C399.733 376.429 399.439 377.207 398.853 377.764C398.295 378.292 397.621 378.556 396.829 378.556C395.597 378.556 394.511 377.94 393.573 376.708L393.485 376.62C393.191 376.209 392.854 375.989 392.473 375.96C392.091 375.901 391.739 376.077 391.417 376.488C391.123 376.752 390.874 377.075 390.669 377.456C390.493 377.808 390.317 378.219 390.141 378.688V390.964C390.141 392.137 390.654 392.871 391.681 393.164L393.089 393.56V394H381.693ZM412.559 394.66C410.33 394.66 408.394 394.205 406.751 393.296C405.108 392.357 403.832 391.037 402.923 389.336C402.043 387.635 401.603 385.64 401.603 383.352C401.603 381.064 402.072 379.084 403.011 377.412C403.979 375.74 405.284 374.449 406.927 373.54C408.599 372.631 410.476 372.176 412.559 372.176C414.642 372.176 416.504 372.631 418.147 373.54C419.79 374.42 421.08 375.696 422.019 377.368C422.987 379.04 423.471 381.035 423.471 383.352C423.471 385.669 423.016 387.679 422.107 389.38C421.227 391.052 419.966 392.357 418.323 393.296C416.71 394.205 414.788 394.66 412.559 394.66ZM412.559 393.78C413.586 393.78 414.407 393.487 415.023 392.9C415.639 392.313 416.079 391.272 416.343 389.776C416.636 388.28 416.783 386.168 416.783 383.44C416.783 380.683 416.636 378.556 416.343 377.06C416.079 375.564 415.639 374.523 415.023 373.936C414.407 373.349 413.586 373.056 412.559 373.056C411.532 373.056 410.696 373.349 410.051 373.936C409.435 374.523 408.98 375.564 408.687 377.06C408.423 378.556 408.291 380.683 408.291 383.44C408.291 386.168 408.423 388.28 408.687 389.776C408.98 391.272 409.435 392.313 410.051 392.9C410.696 393.487 411.532 393.78 412.559 393.78ZM437.573 394.66C435.579 394.66 433.76 394.235 432.117 393.384C430.504 392.504 429.213 391.243 428.245 389.6C427.307 387.928 426.837 385.889 426.837 383.484C426.837 381.108 427.351 379.084 428.377 377.412C429.433 375.711 430.827 374.42 432.557 373.54C434.317 372.631 436.239 372.176 438.321 372.176C440.023 372.176 441.46 372.455 442.633 373.012C443.807 373.569 444.701 374.303 445.317 375.212C445.933 376.092 446.241 377.016 446.241 377.984C446.241 378.805 445.992 379.451 445.493 379.92C444.995 380.36 444.349 380.58 443.557 380.58C442.707 380.58 442.017 380.272 441.489 379.656C440.961 379.04 440.653 378.233 440.565 377.236C440.536 376.591 440.551 376.048 440.609 375.608C440.668 375.139 440.668 374.669 440.609 374.2C440.492 373.701 440.301 373.379 440.037 373.232C439.803 373.056 439.465 372.968 439.025 372.968C437.236 372.968 435.843 373.745 434.845 375.3C433.877 376.855 433.393 379.333 433.393 382.736C433.393 385.699 433.936 387.972 435.021 389.556C436.136 391.111 437.837 391.888 440.125 391.888C441.504 391.888 442.619 391.639 443.469 391.14C444.32 390.641 445.141 389.893 445.933 388.896L446.373 389.248C445.64 390.979 444.511 392.313 442.985 393.252C441.46 394.191 439.656 394.66 437.573 394.66ZM460.19 372.176C462.096 372.176 463.724 372.572 465.074 373.364C466.423 374.127 467.45 375.183 468.154 376.532C468.887 377.852 469.254 379.363 469.254 381.064C469.254 381.387 469.239 381.724 469.21 382.076C469.18 382.399 469.122 382.692 469.034 382.956H455.922C455.951 386.124 456.508 388.412 457.594 389.82C458.708 391.199 460.351 391.888 462.522 391.888C463.988 391.888 465.176 391.653 466.086 391.184C466.995 390.715 467.846 390.025 468.638 389.116L469.078 389.512C468.168 391.125 466.951 392.387 465.426 393.296C463.93 394.205 462.126 394.66 460.014 394.66C457.931 394.66 456.083 394.22 454.47 393.34C452.856 392.431 451.595 391.14 450.686 389.468C449.776 387.796 449.322 385.801 449.322 383.484C449.322 381.079 449.85 379.04 450.906 377.368C451.962 375.667 453.311 374.376 454.954 373.496C456.626 372.616 458.371 372.176 460.19 372.176ZM460.058 373.056C459.207 373.056 458.474 373.32 457.858 373.848C457.271 374.347 456.802 375.256 456.45 376.576C456.127 377.867 455.951 379.7 455.922 382.076H463.446C463.739 378.879 463.622 376.576 463.094 375.168C462.566 373.76 461.554 373.056 460.058 373.056ZM480.058 394.66C478.621 394.66 477.33 394.484 476.186 394.132C475.042 393.809 473.986 393.399 473.018 392.9L473.062 387.664H473.502L474.998 390.304C475.644 391.477 476.348 392.357 477.11 392.944C477.902 393.501 478.9 393.78 480.102 393.78C481.51 393.78 482.64 393.472 483.49 392.856C484.37 392.211 484.81 391.36 484.81 390.304C484.81 389.336 484.502 388.544 483.886 387.928C483.27 387.312 482.126 386.755 480.454 386.256L478.606 385.684C476.817 385.156 475.409 384.335 474.382 383.22C473.356 382.105 472.842 380.741 472.842 379.128C472.842 377.192 473.605 375.549 475.13 374.2C476.656 372.851 478.841 372.176 481.686 372.176C482.83 372.176 483.901 372.308 484.898 372.572C485.925 372.807 486.908 373.173 487.846 373.672L487.582 378.424H487.142L485.602 375.696C485.045 374.728 484.488 374.053 483.93 373.672C483.402 373.261 482.596 373.056 481.51 373.056C480.513 373.056 479.574 373.335 478.694 373.892C477.814 374.449 477.374 375.241 477.374 376.268C477.374 377.265 477.741 378.057 478.474 378.644C479.237 379.231 480.352 379.773 481.818 380.272L483.798 380.844C485.91 381.489 487.421 382.384 488.33 383.528C489.24 384.643 489.694 385.992 489.694 387.576C489.694 389.717 488.844 391.433 487.142 392.724C485.47 394.015 483.109 394.66 480.058 394.66ZM500.222 394.66C498.785 394.66 497.494 394.484 496.35 394.132C495.206 393.809 494.15 393.399 493.182 392.9L493.226 387.664H493.666L495.162 390.304C495.808 391.477 496.512 392.357 497.274 392.944C498.066 393.501 499.064 393.78 500.266 393.78C501.674 393.78 502.804 393.472 503.654 392.856C504.534 392.211 504.974 391.36 504.974 390.304C504.974 389.336 504.666 388.544 504.05 387.928C503.434 387.312 502.29 386.755 500.618 386.256L498.77 385.684C496.981 385.156 495.573 384.335 494.546 383.22C493.52 382.105 493.006 380.741 493.006 379.128C493.006 377.192 493.769 375.549 495.294 374.2C496.82 372.851 499.005 372.176 501.85 372.176C502.994 372.176 504.065 372.308 505.062 372.572C506.089 372.807 507.072 373.173 508.01 373.672L507.746 378.424H507.306L505.766 375.696C505.209 374.728 504.652 374.053 504.094 373.672C503.566 373.261 502.76 373.056 501.674 373.056C500.677 373.056 499.738 373.335 498.858 373.892C497.978 374.449 497.538 375.241 497.538 376.268C497.538 377.265 497.905 378.057 498.638 378.644C499.401 379.231 500.516 379.773 501.982 380.272L503.962 380.844C506.074 381.489 507.585 382.384 508.494 383.528C509.404 384.643 509.858 385.992 509.858 387.576C509.858 389.717 509.008 391.433 507.306 392.724C505.634 394.015 503.273 394.66 500.222 394.66Z" fill="white"/>
</svg>
